# This file uses centimeters as units for non-parametric coordinates.

mtllib Pressure Plate.mtl
g default
v 3.145779 -0.138983 -0.997892
v 2.683782 -0.138983 -1.904612
v 1.964205 -0.138983 -2.624189
v 1.057485 -0.138983 -3.086186
v 0.052378 -0.138983 -3.245379
v -0.952729 -0.138983 -3.086186
v -1.859448 -0.138983 -2.624188
v -2.579025 -0.138983 -1.904611
v -3.041022 -0.138983 -0.997892
v -3.200215 -0.138983 0.007215
v -3.041022 -0.138983 1.012321
v -2.579025 -0.138983 1.919041
v -1.859448 -0.138983 2.638617
v -0.952728 -0.138983 3.100614
v 0.052378 -0.138983 3.259807
v 1.057484 -0.138983 3.100614
v 1.964204 -0.138983 2.638617
v 2.683780 -0.138983 1.919041
v 3.145777 -0.138983 1.012321
v 3.304970 -0.138983 0.007215
v 3.145779 0.810670 -0.997892
v 2.683782 0.810670 -1.904612
v 1.964205 0.810670 -2.624189
v 1.057485 0.810670 -3.086186
v 0.052378 0.810670 -3.245379
v -0.952729 0.810670 -3.086186
v -1.859448 0.810670 -2.624188
v -2.579025 0.810670 -1.904611
v -3.041022 0.810670 -0.997892
v -3.200215 0.810670 0.007215
v -3.041022 0.810670 1.012321
v -2.579025 0.810670 1.919041
v -1.859448 0.810670 2.638617
v -0.952728 0.810670 3.100614
v 0.052378 0.810670 3.259807
v 1.057484 0.810670 3.100614
v 1.964204 0.810670 2.638617
v 2.683780 0.810670 1.919041
v 3.145777 0.810670 1.012321
v 3.304970 0.810670 0.007215
v 0.052378 -0.138983 0.007215
v 0.052378 0.810670 0.007215
vt 0.648603 0.107966
vt 0.626409 0.064408
vt 0.591842 0.029841
vt 0.548284 0.007647
vt 0.500000 -0.000000
vt 0.451716 0.007647
vt 0.408159 0.029841
vt 0.373591 0.064409
vt 0.351397 0.107966
vt 0.343750 0.156250
vt 0.351397 0.204534
vt 0.373591 0.248091
vt 0.408159 0.282659
vt 0.451716 0.304853
vt 0.500000 0.312500
vt 0.548284 0.304853
vt 0.591841 0.282659
vt 0.626409 0.248091
vt 0.648603 0.204534
vt 0.656250 0.156250
vt 0.375000 0.312500
vt 0.387500 0.312500
vt 0.400000 0.312500
vt 0.412500 0.312500
vt 0.425000 0.312500
vt 0.437500 0.312500
vt 0.450000 0.312500
vt 0.462500 0.312500
vt 0.475000 0.312500
vt 0.487500 0.312500
vt 0.500000 0.312500
vt 0.512500 0.312500
vt 0.525000 0.312500
vt 0.537500 0.312500
vt 0.550000 0.312500
vt 0.562500 0.312500
vt 0.575000 0.312500
vt 0.587500 0.312500
vt 0.600000 0.312500
vt 0.612500 0.312500
vt 0.625000 0.312500
vt 0.375000 0.688440
vt 0.387500 0.688440
vt 0.400000 0.688440
vt 0.412500 0.688440
vt 0.425000 0.688440
vt 0.437500 0.688440
vt 0.450000 0.688440
vt 0.462500 0.688440
vt 0.475000 0.688440
vt 0.487500 0.688440
vt 0.500000 0.688440
vt 0.512500 0.688440
vt 0.525000 0.688440
vt 0.537500 0.688440
vt 0.550000 0.688440
vt 0.562500 0.688440
vt 0.575000 0.688440
vt 0.587500 0.688440
vt 0.600000 0.688440
vt 0.612500 0.688440
vt 0.625000 0.688440
vt 0.648603 0.795466
vt 0.626409 0.751908
vt 0.591842 0.717341
vt 0.548284 0.695147
vt 0.500000 0.687500
vt 0.451716 0.695147
vt 0.408159 0.717341
vt 0.373591 0.751909
vt 0.351397 0.795466
vt 0.343750 0.843750
vt 0.351397 0.892034
vt 0.373591 0.935591
vt 0.408159 0.970159
vt 0.451716 0.992353
vt 0.500000 1.000000
vt 0.548284 0.992353
vt 0.591841 0.970159
vt 0.626409 0.935591
vt 0.648603 0.892034
vt 0.656250 0.843750
vt 0.500000 0.150000
vt 0.500000 0.837500
vn 0.951057 0.000000 -0.309016
vn 0.809017 0.000000 -0.587785
vn 0.809017 0.000000 -0.587785
vn 0.951057 0.000000 -0.309016
vn 0.587785 0.000000 -0.809017
vn 0.587785 0.000000 -0.809017
vn 0.309017 0.000000 -0.951057
vn 0.309017 0.000000 -0.951057
vn -0.000000 0.000000 -1.000000
vn -0.000000 0.000000 -1.000000
vn -0.309017 0.000000 -0.951056
vn -0.309017 0.000000 -0.951056
vn -0.587785 0.000000 -0.809017
vn -0.587785 0.000000 -0.809017
vn -0.809017 0.000000 -0.587785
vn -0.809017 0.000000 -0.587785
vn -0.951057 0.000000 -0.309017
vn -0.951057 0.000000 -0.309017
vn -1.000000 0.000000 0.000000
vn -1.000000 0.000000 0.000000
vn -0.951057 0.000000 0.309017
vn -0.951057 0.000000 0.309017
vn -0.809017 0.000000 0.587785
vn -0.809017 0.000000 0.587785
vn -0.587785 0.000000 0.809017
vn -0.587785 0.000000 0.809017
vn -0.309017 0.000000 0.951057
vn -0.309017 0.000000 0.951057
vn 0.000000 0.000000 1.000000
vn 0.000000 0.000000 1.000000
vn 0.309017 0.000000 0.951057
vn 0.309017 0.000000 0.951057
vn 0.587785 0.000000 0.809017
vn 0.587785 0.000000 0.809017
vn 0.809017 0.000000 0.587785
vn 0.809017 0.000000 0.587785
vn 0.951057 0.000000 0.309017
vn 0.951057 0.000000 0.309017
vn 1.000000 0.000000 0.000001
vn 1.000000 0.000000 0.000001
vn 0.000000 -1.000000 0.000000
vn 0.000000 -1.000000 0.000000
vn 0.000000 -1.000000 0.000000
vn 0.000000 -1.000000 0.000000
vn 0.000000 -1.000000 0.000000
vn 0.000000 -1.000000 0.000000
vn 0.000000 -1.000000 0.000000
vn 0.000000 -1.000000 0.000000
vn 0.000000 -1.000000 0.000000
vn 0.000000 -1.000000 0.000000
vn 0.000000 -1.000000 0.000000
vn 0.000000 -1.000000 0.000000
vn 0.000000 -1.000000 0.000000
vn 0.000000 -1.000000 0.000000
vn 0.000000 -1.000000 0.000000
vn 0.000000 -1.000000 0.000000
vn 0.000000 -1.000000 0.000000
vn 0.000000 -1.000000 0.000000
vn 0.000000 -1.000000 0.000000
vn 0.000000 -1.000000 0.000000
vn 0.000000 -1.000000 0.000000
vn 0.000000 1.000000 0.000000
vn 0.000000 1.000000 0.000000
vn 0.000000 1.000000 0.000000
vn 0.000000 1.000000 0.000000
vn 0.000000 1.000000 0.000000
vn 0.000000 1.000000 0.000000
vn 0.000000 1.000000 0.000000
vn 0.000000 1.000000 0.000000
vn 0.000000 1.000000 0.000000
vn 0.000000 1.000000 0.000000
vn 0.000000 1.000000 0.000000
vn 0.000000 1.000000 0.000000
vn 0.000000 1.000000 0.000000
vn 0.000000 1.000000 0.000000
vn 0.000000 1.000000 0.000000
vn 0.000000 1.000000 0.000000
vn 0.000000 1.000000 0.000000
vn 0.000000 1.000000 0.000000
vn 0.000000 1.000000 0.000000
vn 0.000000 1.000000 0.000000
vn 0.000000 1.000000 0.000000
s 1
g pCylinder4
usemtl initialShadingGroup
f 1/21/1 2/22/2 22/43/3 21/42/4
f 2/22/2 3/23/5 23/44/6 22/43/3
f 3/23/5 4/24/7 24/45/8 23/44/6
f 4/24/7 5/25/9 25/46/10 24/45/8
f 5/25/9 6/26/11 26/47/12 25/46/10
f 6/26/11 7/27/13 27/48/14 26/47/12
f 7/27/13 8/28/15 28/49/16 27/48/14
f 8/28/15 9/29/17 29/50/18 28/49/16
f 9/29/17 10/30/19 30/51/20 29/50/18
f 10/30/19 11/31/21 31/52/22 30/51/20
f 11/31/21 12/32/23 32/53/24 31/52/22
f 12/32/23 13/33/25 33/54/26 32/53/24
f 13/33/25 14/34/27 34/55/28 33/54/26
f 14/34/27 15/35/29 35/56/30 34/55/28
f 15/35/29 16/36/31 36/57/32 35/56/30
f 16/36/31 17/37/33 37/58/34 36/57/32
f 17/37/33 18/38/35 38/59/36 37/58/34
f 18/38/35 19/39/37 39/60/38 38/59/36
f 19/39/37 20/40/39 40/61/40 39/60/38
f 20/40/39 1/41/1 21/62/4 40/61/40
s 2
f 2/2/41 1/1/42 41/83/43
f 3/3/44 2/2/41 41/83/43
f 4/4/45 3/3/44 41/83/43
f 5/5/46 4/4/45 41/83/43
f 6/6/47 5/5/46 41/83/43
f 7/7/48 6/6/47 41/83/43
f 8/8/49 7/7/48 41/83/43
f 9/9/50 8/8/49 41/83/43
f 10/10/51 9/9/50 41/83/43
f 11/11/52 10/10/51 41/83/43
f 12/12/53 11/11/52 41/83/43
f 13/13/54 12/12/53 41/83/43
f 14/14/55 13/13/54 41/83/43
f 15/15/56 14/14/55 41/83/43
f 16/16/57 15/15/56 41/83/43
f 17/17/58 16/16/57 41/83/43
f 18/18/59 17/17/58 41/83/43
f 19/19/60 18/18/59 41/83/43
f 20/20/61 19/19/60 41/83/43
f 1/1/42 20/20/61 41/83/43
s 3
f 21/81/62 22/80/63 42/84/64
f 22/80/63 23/79/65 42/84/64
f 23/79/65 24/78/66 42/84/64
f 24/78/66 25/77/67 42/84/64
f 25/77/67 26/76/68 42/84/64
f 26/76/68 27/75/69 42/84/64
f 27/75/69 28/74/70 42/84/64
f 28/74/70 29/73/71 42/84/64
f 29/73/71 30/72/72 42/84/64
f 30/72/72 31/71/73 42/84/64
f 31/71/73 32/70/74 42/84/64
f 32/70/74 33/69/75 42/84/64
f 33/69/75 34/68/76 42/84/64
f 34/68/76 35/67/77 42/84/64
f 35/67/77 36/66/78 42/84/64
f 36/66/78 37/65/79 42/84/64
f 37/65/79 38/64/80 42/84/64
f 38/64/80 39/63/81 42/84/64
f 39/63/81 40/82/82 42/84/64
f 40/82/82 21/81/62 42/84/64
g default
v 4.039400 0.126725 -1.302671
v 3.443294 0.126725 -2.472594
v 2.514837 0.126725 -3.401052
v 1.344913 0.126725 -3.997157
v 0.048043 0.126725 -4.202561
v -1.248828 0.126725 -3.997157
v -2.418751 0.126725 -3.401051
v -3.347207 0.126725 -2.472594
v -3.943313 0.126725 -1.302671
v -4.148717 0.126725 -0.005801
v -3.943313 0.126725 1.291070
v -3.347207 0.126725 2.460993
v -2.418751 0.126725 3.389449
v -1.248828 0.126725 3.985555
v 0.048043 0.126725 4.190958
v 1.344913 0.126725 3.985555
v 2.514836 0.126725 3.389449
v 3.443292 0.126725 2.460993
v 4.039398 0.126725 1.291069
v 4.244802 0.126725 -0.005801
v 3.753114 0.544962 -1.209651
v 3.199765 0.544962 -2.295660
v 2.337903 0.544962 -3.157522
v 1.251893 0.544962 -3.710872
v 0.048043 0.544962 -3.901543
v -1.155808 0.544962 -3.710872
v -2.241816 0.544962 -3.157522
v -3.103679 0.544962 -2.295660
v -3.657027 0.544962 -1.209651
v -3.847698 0.544962 -0.005801
v -3.657027 0.544962 1.198050
v -3.103678 0.544962 2.284059
v -2.241816 0.544962 3.145920
v -1.155808 0.544962 3.699269
v 0.048043 0.544962 3.889941
v 1.251893 0.544962 3.699269
v 2.337901 0.544962 3.145920
v 3.199763 0.544962 2.284058
v 3.753112 0.544962 1.198050
v 3.943783 0.544962 -0.005801
v 0.048043 0.126725 -0.005801
v 3.246141 0.544962 1.033326
v 2.768509 0.544962 1.970734
v 2.024577 0.544962 2.714666
v 1.087168 0.544962 3.192298
v 0.048043 0.544962 3.356880
v -0.991083 0.544962 3.192298
v -1.928491 0.544962 2.714667
v -2.672424 0.544962 1.970734
v -3.150056 0.544962 1.033326
v -3.314638 0.544962 -0.005801
v -3.150056 0.544962 -1.044926
v -2.672424 0.544962 -1.982334
v -1.928492 0.544962 -2.726267
v -0.991083 0.544962 -3.203900
v 0.048043 0.544962 -3.368482
v 1.087169 0.544962 -3.203900
v 2.024578 0.544962 -2.726268
v 2.768511 0.544962 -1.982335
v 3.246143 0.544962 -1.044926
v 3.410723 0.544962 -0.005801
v 3.246141 0.209564 1.033326
v 2.768509 0.209564 1.970734
v 0.048043 0.209564 -0.005801
v 2.024577 0.209564 2.714666
v 1.087168 0.209564 3.192298
v 0.048043 0.209564 3.356880
v -0.991083 0.209564 3.192298
v -1.928491 0.209564 2.714667
v -2.672424 0.209564 1.970734
v -3.150056 0.209564 1.033326
v -3.314638 0.209564 -0.005801
v -3.150056 0.209564 -1.044926
v -2.672424 0.209564 -1.982334
v -1.928492 0.209564 -2.726267
v -0.991083 0.209564 -3.203900
v 0.048043 0.209564 -3.368482
v 1.087169 0.209564 -3.203900
v 2.024578 0.209564 -2.726268
v 2.768511 0.209564 -1.982335
v 3.246143 0.209564 -1.044926
v 3.410723 0.209564 -0.005801
vt 0.648603 0.107966
vt 0.626409 0.064408
vt 0.591842 0.029841
vt 0.548284 0.007647
vt 0.500000 -0.000000
vt 0.451716 0.007647
vt 0.408159 0.029841
vt 0.373591 0.064409
vt 0.351397 0.107966
vt 0.343750 0.156250
vt 0.351397 0.204534
vt 0.373591 0.248091
vt 0.408159 0.282659
vt 0.451716 0.304853
vt 0.500000 0.312500
vt 0.548284 0.304853
vt 0.591841 0.282659
vt 0.626409 0.248091
vt 0.648603 0.204534
vt 0.656250 0.156250
vt 0.375000 0.312500
vt 0.387500 0.312500
vt 0.400000 0.312500
vt 0.412500 0.312500
vt 0.425000 0.312500
vt 0.437500 0.312500
vt 0.450000 0.312500
vt 0.462500 0.312500
vt 0.475000 0.312500
vt 0.487500 0.312500
vt 0.500000 0.312500
vt 0.512500 0.312500
vt 0.525000 0.312500
vt 0.537500 0.312500
vt 0.550000 0.312500
vt 0.562500 0.312500
vt 0.575000 0.312500
vt 0.587500 0.312500
vt 0.600000 0.312500
vt 0.612500 0.312500
vt 0.625000 0.312500
vt 0.375000 0.688440
vt 0.387500 0.688440
vt 0.400000 0.688440
vt 0.412500 0.688440
vt 0.425000 0.688440
vt 0.437500 0.688440
vt 0.450000 0.688440
vt 0.462500 0.688440
vt 0.475000 0.688440
vt 0.487500 0.688440
vt 0.500000 0.688440
vt 0.512500 0.688440
vt 0.525000 0.688440
vt 0.537500 0.688440
vt 0.550000 0.688440
vt 0.562500 0.688440
vt 0.575000 0.688440
vt 0.587500 0.688440
vt 0.600000 0.688440
vt 0.612500 0.688440
vt 0.625000 0.688440
vt 0.648603 0.795466
vt 0.626409 0.751908
vt 0.591842 0.717341
vt 0.548284 0.695147
vt 0.500000 0.687500
vt 0.451716 0.695147
vt 0.408159 0.717341
vt 0.373591 0.751909
vt 0.351397 0.795466
vt 0.343750 0.843750
vt 0.351397 0.892034
vt 0.373591 0.935591
vt 0.408159 0.970159
vt 0.451716 0.992353
vt 0.500000 1.000000
vt 0.548284 0.992353
vt 0.591841 0.970159
vt 0.626409 0.935591
vt 0.648603 0.892034
vt 0.656250 0.843750
vt 0.500000 0.150000
vt 0.500000 0.837500
vt 0.574301 0.816483
vt 0.563205 0.794704
vt 0.545921 0.777421
vt 0.524142 0.766324
vt 0.500000 0.762500
vt 0.475858 0.766324
vt 0.454079 0.777421
vt 0.436796 0.794704
vt 0.425699 0.816483
vt 0.421875 0.840625
vt 0.425699 0.864767
vt 0.436796 0.886546
vt 0.454079 0.903829
vt 0.475858 0.914926
vt 0.500000 0.918750
vt 0.524142 0.914926
vt 0.545921 0.903829
vt 0.563204 0.886546
vt 0.574301 0.864767
vt 0.578125 0.840625
vt 0.563205 0.794704
vt 0.574301 0.816483
vt 0.545921 0.777421
vt 0.524142 0.766324
vt 0.500000 0.762500
vt 0.475858 0.766324
vt 0.454079 0.777421
vt 0.436796 0.794704
vt 0.425699 0.816483
vt 0.421875 0.840625
vt 0.425699 0.864767
vt 0.436796 0.886546
vt 0.454079 0.903829
vt 0.475858 0.914926
vt 0.500000 0.918750
vt 0.524142 0.914926
vt 0.545921 0.903829
vt 0.563204 0.886546
vt 0.574301 0.864767
vt 0.578125 0.840625
vn 0.771913 0.584162 -0.250809
vn 0.656628 0.584162 -0.477068
vn 0.656628 0.584162 -0.477068
vn 0.771913 0.584162 -0.250809
vn 0.477068 0.584162 -0.656628
vn 0.477068 0.584162 -0.656628
vn 0.250810 0.584162 -0.771913
vn 0.250810 0.584162 -0.771913
vn -0.000000 0.584162 -0.811637
vn -0.000000 0.584162 -0.811637
vn -0.250810 0.584162 -0.771913
vn -0.250810 0.584162 -0.771913
vn -0.477069 0.584162 -0.656628
vn -0.477069 0.584162 -0.656628
vn -0.656629 0.584161 -0.477068
vn -0.656629 0.584161 -0.477068
vn -0.771913 0.584162 -0.250810
vn -0.771913 0.584162 -0.250810
vn -0.811637 0.584162 0.000000
vn -0.811637 0.584162 0.000000
vn -0.771913 0.584162 0.250810
vn -0.771913 0.584162 0.250810
vn -0.656628 0.584162 0.477068
vn -0.656628 0.584162 0.477068
vn -0.477068 0.584163 0.656628
vn -0.477068 0.584163 0.656628
vn -0.250810 0.584162 0.771913
vn -0.250810 0.584162 0.771913
vn 0.000000 0.584162 0.811637
vn 0.000000 0.584162 0.811637
vn 0.250810 0.584162 0.771913
vn 0.250810 0.584162 0.771913
vn 0.477068 0.584162 0.656628
vn 0.477068 0.584162 0.656628
vn 0.656628 0.584162 0.477068
vn 0.656628 0.584162 0.477068
vn 0.771913 0.584162 0.250810
vn 0.771913 0.584162 0.250810
vn 0.811637 0.584162 0.000001
vn 0.811637 0.584162 0.000001
vn 0.000000 -1.000000 0.000000
vn 0.000000 -1.000000 0.000000
vn 0.000000 -1.000000 -0.000000
vn 0.000000 -1.000000 0.000000
vn 0.000000 -1.000000 0.000000
vn 0.000000 -1.000000 0.000000
vn 0.000000 -1.000000 0.000000
vn 0.000000 -1.000000 0.000000
vn 0.000000 -1.000000 0.000000
vn 0.000000 -1.000000 0.000000
vn 0.000000 -1.000000 -0.000000
vn 0.000000 -1.000000 -0.000000
vn 0.000000 -1.000000 0.000000
vn 0.000000 -1.000000 0.000000
vn 0.000000 -1.000000 0.000000
vn 0.000000 -1.000000 0.000000
vn 0.000000 -1.000000 0.000000
vn 0.000000 -1.000000 0.000000
vn 0.000000 -1.000000 0.000000
vn 0.000000 -1.000000 0.000000
vn 0.000000 -1.000000 0.000000
vn 0.000000 1.000000 -0.000000
vn 0.000000 1.000000 -0.000000
vn 0.000000 1.000000 -0.000000
vn 0.000000 1.000000 -0.000000
vn 0.000000 1.000000 -0.000000
vn 0.000000 1.000000 -0.000000
vn 0.000000 1.000000 -0.000000
vn 0.000000 1.000000 -0.000000
vn 0.000000 1.000000 -0.000000
vn 0.000000 1.000000 -0.000000
vn 0.000000 1.000000 -0.000000
vn 0.000000 1.000000 -0.000000
vn 0.000000 1.000000 -0.000000
vn 0.000000 1.000000 -0.000000
vn 0.000000 1.000000 -0.000000
vn 0.000000 1.000000 -0.000000
vn 0.000000 1.000000 0.000000
vn 0.000000 1.000000 0.000000
vn 0.000000 1.000000 0.000000
vn 0.000000 1.000000 0.000000
vn 0.000000 1.000000 0.000000
vn 0.000000 1.000000 0.000000
vn 0.000000 1.000000 0.000000
vn 0.000000 1.000000 0.000000
vn 0.000000 1.000000 0.000000
vn 0.000000 1.000000 0.000000
vn 0.000000 1.000000 0.000000
vn 0.000000 1.000000 0.000000
vn 0.000000 1.000000 0.000000
vn 0.000000 1.000000 0.000000
vn 0.000000 1.000000 0.000000
vn 0.000000 1.000000 0.000000
vn 0.000000 1.000000 0.000000
vn 0.000000 1.000000 0.000000
vn 0.000000 1.000000 0.000000
vn 0.000000 1.000000 0.000000
vn 0.000000 1.000000 -0.000000
vn 0.000000 1.000000 0.000000
vn 0.000000 1.000000 -0.000000
vn 0.000000 1.000000 -0.000000
vn 0.000000 1.000000 0.000000
vn -0.000000 1.000000 0.000000
vn 0.000000 1.000000 -0.000000
vn 0.000000 1.000000 -0.000000
vn 0.000000 1.000000 0.000000
vn 0.000000 1.000000 0.000000
vn 0.000000 1.000000 0.000000
vn 0.000000 1.000000 0.000000
vn 0.000000 1.000000 0.000000
vn 0.000000 1.000000 0.000000
vn 0.000000 1.000000 0.000000
vn 0.000000 1.000000 0.000000
vn 0.000000 1.000000 0.000000
vn 0.000000 1.000000 0.000000
vn 0.000000 1.000000 0.000000
vn 0.000000 1.000000 0.000000
vn 0.000000 1.000000 0.000000
vn 0.000000 1.000000 -0.000000
vn 0.000000 1.000000 -0.000000
vn 0.000000 1.000000 0.000000
vn 0.000000 1.000000 0.000000
vn -0.809017 0.000000 -0.587785
vn -0.951057 0.000000 -0.309017
vn -0.951057 0.000000 -0.309017
vn -0.809017 0.000000 -0.587785
vn -0.587785 0.000000 -0.809017
vn -0.587785 0.000000 -0.809017
vn -0.309017 0.000000 -0.951057
vn -0.309017 0.000000 -0.951057
vn 0.000000 0.000000 -1.000000
vn 0.000000 0.000000 -1.000000
vn 0.309016 0.000000 -0.951057
vn 0.309016 0.000000 -0.951057
vn 0.587785 0.000000 -0.809018
vn 0.587785 0.000000 -0.809018
vn 0.809017 0.000000 -0.587785
vn 0.809017 0.000000 -0.587785
vn 0.951057 0.000000 -0.309016
vn 0.951057 0.000000 -0.309016
vn 1.000000 0.000000 -0.000000
vn 1.000000 0.000000 -0.000000
vn 0.951057 0.000000 0.309016
vn 0.951057 0.000000 0.309016
vn 0.809018 0.000000 0.587785
vn 0.809018 0.000000 0.587785
vn 0.587785 0.000000 0.809017
vn 0.587785 0.000000 0.809017
vn 0.309017 0.000000 0.951057
vn 0.309017 0.000000 0.951057
vn 0.000000 0.000000 1.000000
vn 0.000000 0.000000 1.000000
vn -0.309016 0.000000 0.951057
vn -0.309016 0.000000 0.951057
vn -0.587785 0.000000 0.809017
vn -0.587785 0.000000 0.809017
vn -0.809017 0.000000 0.587785
vn -0.809017 0.000000 0.587785
vn -0.951057 0.000000 0.309016
vn -0.951057 0.000000 0.309016
vn -1.000000 0.000000 -0.000001
vn -1.000000 0.000000 -0.000001
s 1
g pCylinder3
usemtl initialShadingGroup
f 43/105/83 44/106/84 64/127/85 63/126/86
f 44/106/84 45/107/87 65/128/88 64/127/85
f 45/107/87 46/108/89 66/129/90 65/128/88
f 46/108/89 47/109/91 67/130/92 66/129/90
f 47/109/91 48/110/93 68/131/94 67/130/92
f 48/110/93 49/111/95 69/132/96 68/131/94
f 49/111/95 50/112/97 70/133/98 69/132/96
f 50/112/97 51/113/99 71/134/100 70/133/98
f 51/113/99 52/114/101 72/135/102 71/134/100
f 52/114/101 53/115/103 73/136/104 72/135/102
f 53/115/103 54/116/105 74/137/106 73/136/104
f 54/116/105 55/117/107 75/138/108 74/137/106
f 55/117/107 56/118/109 76/139/110 75/138/108
f 56/118/109 57/119/111 77/140/112 76/139/110
f 57/119/111 58/120/113 78/141/114 77/140/112
f 58/120/113 59/121/115 79/142/116 78/141/114
f 59/121/115 60/122/117 80/143/118 79/142/116
f 60/122/117 61/123/119 81/144/120 80/143/118
f 61/123/119 62/124/121 82/145/122 81/144/120
f 62/124/121 43/125/83 63/146/86 82/145/122
s 2
f 44/86/123 43/85/124 83/167/125
f 45/87/126 44/86/123 83/167/125
f 46/88/127 45/87/126 83/167/125
f 47/89/128 46/88/127 83/167/125
f 48/90/129 47/89/128 83/167/125
f 49/91/130 48/90/129 83/167/125
f 50/92/131 49/91/130 83/167/125
f 51/93/132 50/92/131 83/167/125
f 52/94/133 51/93/132 83/167/125
f 53/95/134 52/94/133 83/167/125
f 54/96/135 53/95/134 83/167/125
f 55/97/136 54/96/135 83/167/125
f 56/98/137 55/97/136 83/167/125
f 57/99/138 56/98/137 83/167/125
f 58/100/139 57/99/138 83/167/125
f 59/101/140 58/100/139 83/167/125
f 60/102/141 59/101/140 83/167/125
f 61/103/142 60/102/141 83/167/125
f 62/104/143 61/103/142 83/167/125
f 43/85/124 62/104/143 83/167/125
s 3
f 63/165/144 64/164/145 101/186/146 102/187/147
f 64/164/145 65/163/148 100/185/149 101/186/146
f 65/163/148 66/162/150 99/184/151 100/185/149
f 66/162/150 67/161/152 98/183/153 99/184/151
f 67/161/152 68/160/154 97/182/155 98/183/153
f 68/160/154 69/159/156 96/181/157 97/182/155
f 69/159/156 70/158/158 95/180/159 96/181/157
f 70/158/158 71/157/160 94/179/161 95/180/159
f 71/157/160 72/156/162 93/178/163 94/179/161
f 72/156/162 73/155/164 92/177/165 93/178/163
f 73/155/164 74/154/166 91/176/167 92/177/165
f 74/154/166 75/153/168 90/175/169 91/176/167
f 75/153/168 76/152/170 89/174/171 90/175/169
f 76/152/170 77/151/172 88/173/173 89/174/171
f 77/151/172 78/150/174 87/172/175 88/173/173
f 78/150/174 79/149/176 86/171/177 87/172/175
f 79/149/176 80/148/178 85/170/179 86/171/177
f 80/148/178 81/147/180 84/169/181 85/170/179
f 81/147/180 82/166/182 103/188/183 84/169/181
f 82/166/182 63/165/144 102/187/147 103/188/183
s 4
f 105/189/184 104/190/185 106/168/186
f 107/191/187 105/189/184 106/168/186
f 108/192/188 107/191/187 106/168/186
f 109/193/189 108/192/188 106/168/186
f 110/194/190 109/193/189 106/168/186
f 111/195/191 110/194/190 106/168/186
f 112/196/192 111/195/191 106/168/186
f 113/197/193 112/196/192 106/168/186
f 114/198/194 113/197/193 106/168/186
f 115/199/195 114/198/194 106/168/186
f 116/200/196 115/199/195 106/168/186
f 117/201/197 116/200/196 106/168/186
f 118/202/198 117/201/197 106/168/186
f 119/203/199 118/202/198 106/168/186
f 120/204/200 119/203/199 106/168/186
f 121/205/201 120/204/200 106/168/186
f 122/206/202 121/205/201 106/168/186
f 123/207/203 122/206/202 106/168/186
f 124/208/204 123/207/203 106/168/186
f 104/190/185 124/208/204 106/168/186
s 5
f 85/170/205 84/169/206 104/190/207 105/189/208
f 86/171/209 85/170/205 105/189/208 107/191/210
f 87/172/211 86/171/209 107/191/210 108/192/212
f 88/173/213 87/172/211 108/192/212 109/193/214
f 89/174/215 88/173/213 109/193/214 110/194/216
f 90/175/217 89/174/215 110/194/216 111/195/218
f 91/176/219 90/175/217 111/195/218 112/196/220
f 92/177/221 91/176/219 112/196/220 113/197/222
f 93/178/223 92/177/221 113/197/222 114/198/224
f 94/179/225 93/178/223 114/198/224 115/199/226
f 95/180/227 94/179/225 115/199/226 116/200/228
f 96/181/229 95/180/227 116/200/228 117/201/230
f 97/182/231 96/181/229 117/201/230 118/202/232
f 98/183/233 97/182/231 118/202/232 119/203/234
f 99/184/235 98/183/233 119/203/234 120/204/236
f 100/185/237 99/184/235 120/204/236 121/205/238
f 101/186/239 100/185/237 121/205/238 122/206/240
f 102/187/241 101/186/239 122/206/240 123/207/242
f 103/188/243 102/187/241 123/207/242 124/208/244
f 84/169/206 103/188/243 124/208/244 104/190/207
