# This file uses centimeters as units for non-parametric coordinates.

mtllib Rock.mtl
g default
v -0.961099 -0.962462 1.973489
v 1.263663 -1.215861 1.997355
v -0.687127 1.983687 1.421267
v 0.930158 1.983687 1.421267
v -0.687127 1.983687 -1.421267
v 0.930158 1.983687 -1.421267
v -1.033575 -0.900357 -2.066426
v 1.533629 -1.006124 -2.005576
v 0.121516 -0.918934 2.761324
v 0.121516 -1.006366 -2.562990
v 0.121516 1.983687 -1.801294
v 0.121516 1.983687 2.120302
v -1.001936 1.983687 0.000000
v 0.121516 2.859785 0.000000
v 1.378158 1.983687 0.000000
v 1.788699 -1.034208 0.000000
v 0.121516 -1.606003 0.000000
v -0.963730 -1.215861 0.000000
v -1.290597 -0.977714 -1.240962
v 0.121516 -1.493778 -1.240962
v 1.704582 -1.215861 -1.240962
v 1.170173 1.983687 -0.710634
v 0.121516 2.561840 -1.333392
v -1.112738 1.983687 -0.710634
v -1.063532 1.983687 0.710634
v 0.121516 2.561840 1.190923
v 1.218593 1.983687 0.710634
v 1.396650 -1.215861 1.240962
v 0.121516 -1.493778 1.240962
v -1.290597 -1.215861 1.240962
v -0.584541 -0.875442 2.481925
v -0.584541 -1.493778 1.240962
v -0.584541 -1.493778 0.000000
v -0.584541 -1.493778 -1.240962
v -0.584541 -0.857704 -2.481925
v -0.282806 1.983687 -1.551143
v -0.282806 2.561840 -0.710634
v -0.557867 2.561840 0.000000
v -0.282806 2.561840 1.070110
v -0.282806 1.983687 1.874457
v 0.827572 -1.095887 2.481925
v 0.827572 -1.493778 1.240962
v 0.827572 -1.493778 0.000000
v 0.827572 -1.493778 -1.240962
v 0.827572 -1.006366 -2.425578
v 0.525837 1.983687 -1.730391
v 0.858328 2.561840 -0.710634
v 1.013347 2.561840 0.000000
v 0.858876 2.561840 0.710634
v 0.525837 1.983687 1.921071
v -1.290597 0.467886 2.481925
v -0.584541 0.467886 3.169883
v 0.121516 0.467886 3.463529
v 1.283043 0.467886 3.119367
v 2.000329 0.467886 2.481925
v 2.382003 0.467886 1.240962
v 2.813821 0.467886 0.000000
v 2.369127 0.467886 -1.240962
v 1.757849 0.467886 -2.160651
v 0.827572 0.467886 -2.982994
v 0.121516 0.467886 -3.251702
v -0.584541 0.467886 -2.764402
v -1.290597 0.467886 -2.481925
v -1.890816 0.467886 -1.240962
v -2.220150 0.909619 0.000000
v -1.998530 0.909619 1.240962
v -1.039957 1.530626 -2.047613
v -0.584541 1.530626 -2.481925
v 0.121516 1.530626 -2.733453
v 0.827572 1.530626 -2.481925
v 1.469624 1.530626 -1.729069
v 1.533629 1.530626 -1.240962
v 2.161269 1.530626 0.000000
v 1.830436 1.530626 1.240962
v 1.533629 1.530626 2.054595
v 0.827572 1.530626 2.481925
v 0.121516 1.530626 2.689604
v -0.584541 1.530626 2.481925
v -0.725002 1.530626 2.099153
v -1.290597 1.972359 1.240962
v -1.290597 1.972359 0.000000
v -1.290597 1.530626 -1.240962
v -1.290597 -0.594854 2.481925
v -0.584541 -0.594854 3.304689
v 0.121516 -0.594854 3.598336
v 1.283043 -0.594854 3.390873
v 2.000329 -0.594854 2.481925
v 2.582678 -0.594854 1.240962
v 2.813821 -0.222901 0.000000
v 2.369127 -0.391033 -1.240962
v 1.757849 -0.594854 -2.160651
v 0.827572 -0.594854 -2.982994
v 0.121516 -0.594854 -3.251702
v -0.584541 -0.594854 -2.764402
v -1.290597 -0.594854 -2.481925
v -1.865423 -0.258098 -1.240962
v -1.969846 -0.594854 0.000000
v -2.035245 -0.594854 1.240962
vt 0.375000 0.000000
vt 0.625000 0.000000
vt 0.375000 0.250000
vt 0.625000 0.250000
vt 0.375000 0.500000
vt 0.625000 0.500000
vt 0.375000 0.750000
vt 0.625000 0.750000
vt 0.375000 1.000000
vt 0.625000 1.000000
vt 0.875000 0.000000
vt 0.875000 0.250000
vt 0.125000 0.000000
vt 0.125000 0.250000
vt 0.500000 0.000000
vt 0.500000 1.000000
vt 0.500000 0.750000
vt 0.500000 0.500000
vt 0.500000 0.250000
vt 0.250000 0.250000
vt 0.375000 0.375000
vt 0.500000 0.375000
vt 0.625000 0.375000
vt 0.750000 0.250000
vt 0.625000 0.875000
vt 0.750000 0.000000
vt 0.500000 0.875000
vt 0.250000 0.000000
vt 0.375000 0.875000
vt 0.187500 0.000000
vt 0.375000 0.812500
vt 0.500000 0.812500
vt 0.625000 0.812500
vt 0.812500 0.000000
vt 0.625000 0.437500
vt 0.812500 0.250000
vt 0.500000 0.437500
vt 0.187500 0.250000
vt 0.375000 0.437500
vt 0.312500 0.250000
vt 0.375000 0.312500
vt 0.500000 0.312500
vt 0.625000 0.312500
vt 0.687500 0.250000
vt 0.625000 0.937500
vt 0.687500 0.000000
vt 0.500000 0.937500
vt 0.312500 0.000000
vt 0.375000 0.937500
vt 0.437500 0.000000
vt 0.437500 1.000000
vt 0.437500 0.937500
vt 0.437500 0.875000
vt 0.437500 0.812500
vt 0.437500 0.750000
vt 0.437500 0.500000
vt 0.437500 0.437500
vt 0.437500 0.375000
vt 0.437500 0.312500
vt 0.437500 0.250000
vt 0.562500 0.000000
vt 0.562500 1.000000
vt 0.562500 0.937500
vt 0.562500 0.875000
vt 0.562500 0.812500
vt 0.562500 0.750000
vt 0.562500 0.500000
vt 0.562500 0.437500
vt 0.562500 0.375000
vt 0.562500 0.312500
vt 0.562500 0.250000
vt 0.375000 0.125000
vt 0.437500 0.125000
vt 0.500000 0.125000
vt 0.562500 0.125000
vt 0.625000 0.125000
vt 0.687500 0.125000
vt 0.750000 0.125000
vt 0.812500 0.125000
vt 0.625000 0.625000
vt 0.875000 0.125000
vt 0.562500 0.625000
vt 0.500000 0.625000
vt 0.437500 0.625000
vt 0.125000 0.125000
vt 0.375000 0.625000
vt 0.187500 0.125000
vt 0.250000 0.125000
vt 0.312500 0.125000
vt 0.125000 0.187500
vt 0.375000 0.562500
vt 0.437500 0.562500
vt 0.500000 0.562500
vt 0.562500 0.562500
vt 0.625000 0.562500
vt 0.875000 0.187500
vt 0.812500 0.187500
vt 0.750000 0.187500
vt 0.687500 0.187500
vt 0.625000 0.187500
vt 0.562500 0.187500
vt 0.500000 0.187500
vt 0.437500 0.187500
vt 0.375000 0.187500
vt 0.312500 0.187500
vt 0.250000 0.187500
vt 0.187500 0.187500
vt 0.375000 0.062500
vt 0.437500 0.062500
vt 0.500000 0.062500
vt 0.562500 0.062500
vt 0.625000 0.062500
vt 0.687500 0.062500
vt 0.750000 0.062500
vt 0.812500 0.062500
vt 0.625000 0.687500
vt 0.875000 0.062500
vt 0.562500 0.687500
vt 0.500000 0.687500
vt 0.437500 0.687500
vt 0.125000 0.062500
vt 0.375000 0.687500
vt 0.187500 0.062500
vt 0.250000 0.062500
vt 0.312500 0.062500
vn 0.622621 0.646419 0.441006
vn 0.326522 0.663963 0.672708
vn 0.457677 0.356955 0.814319
vn 0.818915 0.290430 0.495003
vn 0.664933 0.704419 -0.248309
vn 0.462972 0.839949 -0.283095
vn 0.571117 0.820834 -0.007514
vn 0.632006 0.773901 -0.040579
vn 0.755937 0.210699 -0.619811
vn 0.546014 0.200443 -0.813444
vn 0.482330 0.565963 -0.668614
vn 0.689740 0.536614 -0.486111
vn 0.545849 -0.837586 -0.022319
vn 0.264603 -0.964194 0.017756
vn 0.202713 -0.966550 -0.157125
vn 0.545067 -0.829265 -0.123379
vn 0.710662 0.636091 -0.300579
vn 0.785880 0.615641 -0.058128
vn 0.944666 0.325954 -0.036874
vn 0.858652 0.314428 -0.404786
vn -0.750324 0.653084 -0.102444
vn -0.779791 0.541111 -0.314841
vn -0.927732 0.207398 -0.310322
vn -0.956421 0.280447 -0.081287
vn -0.300579 -0.953656 -0.013894
vn -0.301799 -0.931696 -0.202139
vn -0.023245 -0.973972 -0.225475
vn 0.000000 -1.000000 0.000000
vn -0.110116 0.201194 -0.973342
vn -0.478220 0.162128 -0.863146
vn -0.403291 0.571292 -0.714830
vn -0.061078 0.620638 -0.781715
vn -0.469759 0.841482 -0.266897
vn -0.577021 0.816669 0.009856
vn 0.001564 0.999999 -0.000396
vn -0.026897 0.891168 -0.452875
vn 0.006149 0.647496 0.762044
vn -0.494399 0.587216 0.640896
vn -0.551082 0.294078 0.780914
vn 0.002688 0.379449 0.925209
vn -0.451516 0.847249 0.279825
vn 0.041548 0.931933 0.360244
vn 0.462903 0.839488 0.284573
vn 0.609212 0.767641 0.198965
vn 0.744112 0.625043 0.235834
vn 0.905160 0.302022 0.299112
vn 0.470250 -0.879871 0.068498
vn 0.176973 -0.973507 0.144791
vn -0.228887 -0.951265 0.206652
vn -0.044092 -0.974042 0.222030
vn -0.676408 0.642008 0.360968
vn -0.912366 0.278732 0.299829
vn -0.260101 -0.857846 -0.443223
vn -0.045108 -0.894562 -0.444662
vn 0.209889 -0.864089 -0.457490
vn 0.469582 -0.769120 -0.433529
vn 0.339865 0.796220 -0.500525
vn 0.550081 0.750968 -0.365318
vn -0.360448 0.817916 -0.448431
vn -0.041601 0.850452 -0.524404
vn -0.765728 0.195743 -0.612655
vn -0.684189 0.530833 -0.500102
vn -0.387088 0.777880 0.495041
vn 0.035026 0.830678 0.555650
vn 0.325527 0.811484 0.485311
vn 0.526369 0.777017 0.345225
vn 0.106033 -0.924125 0.367084
vn 0.393201 -0.881396 0.261791
vn -0.213558 -0.901892 0.375479
vn -0.064875 -0.923399 0.378319
vn -0.621778 0.564538 0.542853
vn -0.776550 0.216655 0.591634
vn -0.534233 -0.837968 0.111380
vn -0.414717 -0.820777 0.392855
vn -0.568661 -0.820017 -0.064780
vn -0.633460 -0.758323 -0.153867
vn -0.542733 -0.774036 -0.326051
vn -0.607147 0.765449 -0.213217
vn -0.431462 0.817510 -0.381467
vn -0.620664 0.784006 -0.010530
vn -0.449344 0.876794 0.171234
vn -0.469101 0.790388 0.393994
vn -0.781341 -0.265524 0.564803
vn -0.549102 -0.343485 0.761909
vn -0.031158 -0.366876 0.929748
vn 0.454211 -0.347387 0.820374
vn 0.795092 -0.401159 0.454862
vn 0.847481 -0.500467 0.176944
vn 0.922182 -0.385831 -0.026752
vn 0.867683 -0.399979 -0.295200
vn 0.751627 -0.231897 -0.617480
vn 0.510325 -0.269559 -0.816643
vn -0.127175 -0.321081 -0.938474
vn -0.461697 -0.271691 -0.844405
vn -0.754445 -0.287819 -0.589893
vn -0.911098 -0.324823 -0.253753
vn -0.886569 -0.457445 -0.068837
vn -0.920245 -0.315713 0.231245
s 1
g pCube2
usemtl initialShadingGroup
f 75/100/1 76/101/2 54/75/3 55/76/4
f 22/35/5 47/68/6 48/69/7 15/23/8
f 59/80/9 60/82/10 70/94/11 71/95/12
f 16/25/13 43/64/14 44/65/15 21/33/16
f 72/97/17 73/98/18 57/78/19 58/79/20
f 81/106/21 82/107/22 64/87/23 65/88/24
f 33/53/25 34/54/26 20/32/27 17/27/28
f 61/83/29 62/84/30 68/92/31 69/93/32
f 37/57/33 38/58/34 14/22/35 23/37/36
f 77/102/37 78/103/38 52/73/39 53/74/40
f 38/58/34 39/59/41 26/42/42 14/22/35
f 15/23/8 48/69/7 49/70/43 27/43/44
f 73/98/18 74/99/45 56/77/46 57/78/19
f 28/45/47 42/63/48 43/64/14 16/25/13
f 32/52/49 33/53/25 17/27/28 29/47/50
f 80/105/51 81/106/21 65/88/24 66/89/52
f 34/54/26 35/55/53 10/17/54 20/32/27
f 21/33/16 44/65/15 45/66/55 8/8/56
f 71/96/12 72/97/17 58/79/20 59/81/9
f 46/67/57 47/68/6 22/35/5 6/6/58
f 36/56/59 37/57/33 23/37/36 11/18/60
f 63/85/61 64/87/23 82/107/22 67/90/62
f 39/59/41 40/60/63 12/19/64 26/42/42
f 27/43/44 49/70/43 50/71/65 4/4/66
f 55/76/4 56/77/46 74/99/45 75/100/1
f 41/62/67 42/63/48 28/45/47 2/10/68
f 31/51/69 32/52/49 29/47/50 9/16/70
f 79/104/71 80/105/51 66/89/52 51/72/72
f 30/49/73 32/52/49 31/51/69 1/9/74
f 18/29/75 33/53/25 32/52/49 30/49/73
f 19/31/76 34/54/26 33/53/25 18/29/75
f 7/7/77 35/55/53 34/54/26 19/31/76
f 67/91/62 68/92/31 62/84/30 63/86/61
f 24/39/78 37/57/33 36/56/59 5/5/79
f 13/21/80 38/58/34 37/57/33 24/39/78
f 25/41/81 39/59/41 38/58/34 13/21/80
f 3/3/82 40/60/63 39/59/41 25/41/81
f 51/72/72 52/73/39 78/103/38 79/104/71
f 9/16/70 29/47/50 42/63/48 41/62/67
f 43/64/14 42/63/48 29/47/50 17/27/28
f 44/65/15 43/64/14 17/27/28 20/32/27
f 45/66/55 44/65/15 20/32/27 10/17/54
f 60/82/10 61/83/29 69/93/32 70/94/11
f 11/18/60 23/37/36 47/68/6 46/67/57
f 48/69/7 47/68/6 23/37/36 14/22/35
f 49/70/43 48/69/7 14/22/35 26/42/42
f 50/71/65 49/70/43 26/42/42 12/19/64
f 76/101/2 77/102/37 53/74/40 54/75/3
f 83/108/83 84/109/84 52/73/39 51/72/72
f 53/74/40 52/73/39 84/109/84 85/110/85
f 54/75/3 53/74/40 85/110/85 86/111/86
f 55/76/4 54/75/3 86/111/86 87/112/87
f 87/112/87 88/113/88 56/77/46 55/76/4
f 57/78/19 56/77/46 88/113/88 89/114/89
f 58/79/20 57/78/19 89/114/89 90/115/90
f 59/81/9 58/79/20 90/115/90 91/117/91
f 91/116/91 92/118/92 60/82/10 59/80/9
f 92/118/92 93/119/93 61/83/29 60/82/10
f 93/119/93 94/120/94 62/84/30 61/83/29
f 63/86/61 62/84/30 94/120/94 95/122/95
f 95/121/95 96/123/96 64/87/23 63/85/61
f 65/88/24 64/87/23 96/123/96 97/124/97
f 66/89/52 65/88/24 97/124/97 98/125/98
f 51/72/72 66/89/52 98/125/98 83/108/83
f 5/5/79 36/56/59 68/92/31 67/91/62
f 69/93/32 68/92/31 36/56/59 11/18/60
f 70/94/11 69/93/32 11/18/60 46/67/57
f 71/95/12 70/94/11 46/67/57 6/6/58
f 22/36/5 72/97/17 71/96/12 6/12/58
f 15/24/8 73/98/18 72/97/17 22/36/5
f 27/44/44 74/99/45 73/98/18 15/24/8
f 75/100/1 74/99/45 27/44/44 4/4/66
f 50/71/65 76/101/2 75/100/1 4/4/66
f 12/19/64 77/102/37 76/101/2 50/71/65
f 40/60/63 78/103/38 77/102/37 12/19/64
f 79/104/71 78/103/38 40/60/63 3/3/82
f 25/40/81 80/105/51 79/104/71 3/3/82
f 13/20/80 81/106/21 80/105/51 25/40/81
f 24/38/78 82/107/22 81/106/21 13/20/80
f 67/90/62 82/107/22 24/38/78 5/14/79
f 1/1/74 31/50/69 84/109/84 83/108/83
f 85/110/85 84/109/84 31/50/69 9/15/70
f 86/111/86 85/110/85 9/15/70 41/61/67
f 87/112/87 86/111/86 41/61/67 2/2/68
f 2/2/68 28/46/47 88/113/88 87/112/87
f 89/114/89 88/113/88 28/46/47 16/26/13
f 90/115/90 89/114/89 16/26/13 21/34/16
f 91/117/91 90/115/90 21/34/16 8/11/56
f 45/66/55 92/118/92 91/116/91 8/8/56
f 10/17/54 93/119/93 92/118/92 45/66/55
f 35/55/53 94/120/94 93/119/93 10/17/54
f 95/122/95 94/120/94 35/55/53 7/7/77
f 7/13/77 19/30/76 96/123/96 95/121/95
f 97/124/97 96/123/96 19/30/76 18/28/75
f 98/125/98 97/124/97 18/28/75 30/48/73
f 83/108/83 98/125/98 30/48/73 1/1/74
