# This file uses centimeters as units for non-parametric coordinates.

mtllib Spike Trap.mtl
g default
v -4.783779 -0.546807 4.689309
v 4.850914 -0.546807 4.689309
v -4.783779 0.546807 4.689309
v 4.850914 0.546807 4.689309
v -4.783779 0.546807 -4.945387
v 4.850914 0.546807 -4.945387
v -4.783779 -0.546807 -4.945387
v 4.850914 -0.546807 -4.945387
v -4.270692 1.005416 4.176223
v 4.337829 1.005416 4.176223
v 4.337829 1.005416 -4.432299
v -4.270692 1.005416 -4.432299
v -3.618581 1.080092 3.524112
v 3.685717 1.080092 3.524112
v 3.685717 1.080092 -3.780188
v -3.618581 1.080092 -3.780188
v -3.618581 0.817537 3.524112
v 3.685717 0.817537 3.524112
v 3.685717 0.817537 -3.780188
v -3.618581 0.817537 -3.780188
vt 0.375000 0.000000
vt 0.625000 0.000000
vt 0.375000 0.250000
vt 0.625000 0.250000
vt 0.375000 0.500000
vt 0.625000 0.500000
vt 0.375000 0.750000
vt 0.625000 0.750000
vt 0.375000 1.000000
vt 0.625000 1.000000
vt 0.875000 0.000000
vt 0.875000 0.250000
vt 0.125000 0.000000
vt 0.125000 0.250000
vt 0.375000 0.250000
vt 0.625000 0.250000
vt 0.625000 0.500000
vt 0.375000 0.500000
vt 0.375000 0.250000
vt 0.625000 0.250000
vt 0.625000 0.500000
vt 0.375000 0.500000
vt 0.375000 0.250000
vt 0.625000 0.250000
vt 0.625000 0.500000
vt 0.375000 0.500000
vn 0.000000 0.000000 1.000000
vn 0.000000 0.000000 1.000000
vn 0.000000 0.286794 0.957992
vn 0.000000 0.286794 0.957992
vn 0.000000 1.000000 0.000000
vn 0.000000 1.000000 0.000000
vn 0.000000 1.000000 0.000000
vn 0.000000 1.000000 0.000000
vn 0.000000 0.286795 -0.957992
vn 0.000000 0.286795 -0.957992
vn 0.000000 0.000000 -1.000000
vn 0.000000 0.000000 -1.000000
vn 0.000000 -1.000000 0.000000
vn 0.000000 -1.000000 0.000000
vn 0.000000 -1.000000 0.000000
vn 0.000000 -1.000000 0.000000
vn 1.000000 0.000000 0.000000
vn 1.000000 0.000000 0.000000
vn 0.957992 0.286794 0.000000
vn 0.957992 0.286794 0.000000
vn -1.000000 0.000000 0.000000
vn -1.000000 0.000000 0.000000
vn -0.957992 0.286795 0.000000
vn -0.957992 0.286794 0.000000
vn 0.000000 0.745579 0.666417
vn 0.000000 0.745579 0.666417
vn 0.666418 0.745578 0.000000
vn 0.666418 0.745578 0.000000
vn 0.000000 0.745580 -0.666417
vn 0.000000 0.745580 -0.666417
vn -0.666417 0.745579 0.000000
vn -0.666417 0.745579 0.000000
vn 0.000000 0.993507 0.113770
vn 0.000000 0.993507 0.113770
vn 0.000000 0.993507 0.113770
vn 0.000000 0.993507 0.113770
vn 0.113770 0.993507 0.000000
vn 0.113770 0.993507 0.000000
vn 0.113770 0.993507 0.000000
vn 0.113770 0.993507 0.000000
vn 0.000000 0.993507 -0.113770
vn 0.000000 0.993507 -0.113770
vn 0.000000 0.993507 -0.113770
vn 0.000000 0.993507 -0.113770
vn -0.113770 0.993507 0.000000
vn -0.113770 0.993507 0.000000
vn -0.113770 0.993507 0.000000
vn -0.113770 0.993507 0.000000
vn 0.000000 0.000000 -1.000000
vn 0.000000 0.000000 -1.000000
vn 0.000000 0.000000 -1.000000
vn 0.000000 0.000000 -1.000000
vn -1.000000 0.000000 0.000000
vn -1.000000 0.000000 0.000000
vn -1.000000 0.000000 0.000000
vn -1.000000 0.000000 0.000000
vn 0.000000 0.000000 1.000000
vn 0.000000 0.000000 1.000000
vn 0.000000 0.000000 1.000000
vn 0.000000 0.000000 1.000000
vn 1.000000 0.000000 0.000000
vn 1.000000 0.000000 0.000000
vn 1.000000 0.000000 0.000000
vn 1.000000 0.000000 0.000000
s 1
g pCube4
usemtl initialShadingGroup
f 1/1/1 2/2/2 4/4/3 3/3/4
s off
f 17/23/5 18/24/6 19/25/7 20/26/8
s 2
f 5/5/9 6/6/10 8/8/11 7/7/12
s off
f 7/7/13 8/8/14 2/10/15 1/9/16
s 3
f 2/2/17 8/11/18 6/12/19 4/4/20
s 4
f 7/13/21 1/1/22 3/3/23 5/14/24
s 1
f 3/3/4 4/4/3 10/16/25 9/15/26
s 3
f 4/4/20 6/6/19 11/17/27 10/16/28
s 2
f 6/6/10 5/5/9 12/18/29 11/17/30
s 4
f 5/5/24 3/3/23 9/15/31 12/18/32
s off
f 9/15/33 10/16/34 14/20/35 13/19/36
f 10/16/37 11/17/38 15/21/39 14/20/40
f 11/17/41 12/18/42 16/22/43 15/21/44
f 12/18/45 9/15/46 13/19/47 16/22/48
f 13/19/49 14/20/50 18/24/51 17/23/52
f 14/20/53 15/21/54 19/25/55 18/24/56
f 15/21/57 16/22/58 20/26/59 19/25/60
f 16/22/61 13/19/62 17/23/63 20/26/64
g default
v 2.314863 0.050900 -2.709527
v 1.929283 0.050900 -2.709527
v 1.736492 0.050900 -2.375604
v 1.929283 0.050900 -2.041681
v 2.314863 0.050900 -2.041681
v 2.507654 0.050900 -2.375604
v 2.314863 9.962400 -2.709527
v 1.929283 9.962400 -2.709527
v 1.736492 9.962400 -2.375604
v 1.929283 9.962400 -2.041681
v 2.314863 9.962400 -2.041681
v 2.507654 9.962400 -2.375604
v 2.122073 0.050900 -2.375604
v 2.122073 11.150909 -2.375604
v 2.314863 0.050900 -0.383619
v 1.929283 0.050900 -0.383619
v 1.736492 0.050900 -0.049695
v 1.929283 0.050900 0.284228
v 2.314863 0.050900 0.284228
v 2.507654 0.050900 -0.049695
v 2.314863 9.962400 -0.383619
v 1.929283 9.962400 -0.383619
v 1.736492 9.962400 -0.049695
v 1.929283 9.962400 0.284228
v 2.314863 9.962400 0.284228
v 2.507654 9.962400 -0.049695
v 2.122073 0.050900 -0.049695
v 2.122073 11.150909 -0.049695
v 2.314863 0.050900 1.901475
v 1.929283 0.050900 1.901475
v 1.736492 0.050900 2.235398
v 1.929283 0.050900 2.569321
v 2.314863 0.050900 2.569321
v 2.507654 0.050900 2.235398
v 2.314863 9.962400 1.901475
v 1.929283 9.962400 1.901475
v 1.736492 9.962400 2.235398
v 1.929283 9.962400 2.569321
v 2.314863 9.962400 2.569321
v 2.507654 9.962400 2.235398
v 2.122073 0.050900 2.235398
v 2.122073 11.150909 2.235398
v -1.612883 0.050900 -2.709527
v -1.998464 0.050900 -2.709527
v -2.191254 0.050900 -2.375604
v -1.998464 0.050900 -2.041681
v -1.612883 0.050900 -2.041681
v -1.420093 0.050900 -2.375604
v -1.612883 9.962400 -2.709527
v -1.998464 9.962400 -2.709527
v -2.191254 9.962400 -2.375604
v -1.998464 9.962400 -2.041681
v -1.612883 9.962400 -2.041681
v -1.420093 9.962400 -2.375604
v -1.805674 0.050900 -2.375604
v -1.805674 11.150909 -2.375604
v -1.612883 0.050900 -0.383619
v -1.998464 0.050900 -0.383619
v -2.191254 0.050900 -0.049695
v -1.998464 0.050900 0.284228
v -1.612883 0.050900 0.284228
v -1.420093 0.050900 -0.049695
v -1.612883 9.962400 -0.383619
v -1.998464 9.962400 -0.383619
v -2.191254 9.962400 -0.049695
v -1.998464 9.962400 0.284228
v -1.612883 9.962400 0.284228
v -1.420093 9.962400 -0.049695
v -1.805674 0.050900 -0.049695
v -1.805674 11.150909 -0.049695
v -1.612883 0.050900 1.901475
v -1.998464 0.050900 1.901475
v -2.191254 0.050900 2.235398
v -1.998464 0.050900 2.569321
v -1.612883 0.050900 2.569321
v -1.420093 0.050900 2.235398
v -1.612883 9.962400 1.901475
v -1.998464 9.962400 1.901475
v -2.191254 9.962400 2.235398
v -1.998464 9.962400 2.569321
v -1.612883 9.962400 2.569321
v -1.420093 9.962400 2.235398
v -1.805674 0.050900 2.235398
v -1.805674 11.150909 2.235398
vt 0.578125 0.020934
vt 0.421875 0.020934
vt 0.343750 0.156250
vt 0.421875 0.291566
vt 0.578125 0.291566
vt 0.656250 0.156250
vt 0.375000 0.312500
vt 0.416667 0.312500
vt 0.458333 0.312500
vt 0.500000 0.312500
vt 0.541667 0.312500
vt 0.583333 0.312500
vt 0.625000 0.312500
vt 0.375000 0.688440
vt 0.416667 0.688440
vt 0.458333 0.688440
vt 0.500000 0.688440
vt 0.541667 0.688440
vt 0.583333 0.688440
vt 0.625000 0.688440
vt 0.578125 0.708434
vt 0.421875 0.708434
vt 0.343750 0.843750
vt 0.421875 0.979066
vt 0.578125 0.979066
vt 0.656250 0.843750
vt 0.500000 0.150000
vt 0.500000 0.837500
vt 0.375000 0.312500
vt 0.416667 0.312500
vt 0.416667 0.688440
vt 0.375000 0.688440
vt 0.458333 0.312500
vt 0.458333 0.688440
vt 0.500000 0.312500
vt 0.500000 0.688440
vt 0.541667 0.312500
vt 0.541667 0.688440
vt 0.583333 0.312500
vt 0.583333 0.688440
vt 0.625000 0.312500
vt 0.625000 0.688440
vt 0.421875 0.020934
vt 0.578125 0.020934
vt 0.500000 0.150000
vt 0.343750 0.156250
vt 0.421875 0.291566
vt 0.578125 0.291566
vt 0.656250 0.156250
vt 0.578125 0.979066
vt 0.421875 0.979066
vt 0.500000 0.837500
vt 0.343750 0.843750
vt 0.421875 0.708434
vt 0.578125 0.708434
vt 0.656250 0.843750
vt 0.375000 0.312500
vt 0.416667 0.312500
vt 0.416667 0.688440
vt 0.375000 0.688440
vt 0.458333 0.312500
vt 0.458333 0.688440
vt 0.500000 0.312500
vt 0.500000 0.688440
vt 0.541667 0.312500
vt 0.541667 0.688440
vt 0.583333 0.312500
vt 0.583333 0.688440
vt 0.625000 0.312500
vt 0.625000 0.688440
vt 0.421875 0.020934
vt 0.578125 0.020934
vt 0.500000 0.150000
vt 0.343750 0.156250
vt 0.421875 0.291566
vt 0.578125 0.291566
vt 0.656250 0.156250
vt 0.578125 0.979066
vt 0.421875 0.979066
vt 0.500000 0.837500
vt 0.343750 0.843750
vt 0.421875 0.708434
vt 0.578125 0.708434
vt 0.656250 0.843750
vt 0.375000 0.312500
vt 0.416667 0.312500
vt 0.416667 0.688440
vt 0.375000 0.688440
vt 0.458333 0.312500
vt 0.458333 0.688440
vt 0.500000 0.312500
vt 0.500000 0.688440
vt 0.541667 0.312500
vt 0.541667 0.688440
vt 0.583333 0.312500
vt 0.583333 0.688440
vt 0.625000 0.312500
vt 0.625000 0.688440
vt 0.421875 0.020934
vt 0.578125 0.020934
vt 0.500000 0.150000
vt 0.343750 0.156250
vt 0.421875 0.291566
vt 0.578125 0.291566
vt 0.656250 0.156250
vt 0.578125 0.979066
vt 0.421875 0.979066
vt 0.500000 0.837500
vt 0.343750 0.843750
vt 0.421875 0.708434
vt 0.578125 0.708434
vt 0.656250 0.843750
vt 0.375000 0.312500
vt 0.416667 0.312500
vt 0.416667 0.688440
vt 0.375000 0.688440
vt 0.458333 0.312500
vt 0.458333 0.688440
vt 0.500000 0.312500
vt 0.500000 0.688440
vt 0.541667 0.312500
vt 0.541667 0.688440
vt 0.583333 0.312500
vt 0.583333 0.688440
vt 0.625000 0.312500
vt 0.625000 0.688440
vt 0.421875 0.020934
vt 0.578125 0.020934
vt 0.500000 0.150000
vt 0.343750 0.156250
vt 0.421875 0.291566
vt 0.578125 0.291566
vt 0.656250 0.156250
vt 0.578125 0.979066
vt 0.421875 0.979066
vt 0.500000 0.837500
vt 0.343750 0.843750
vt 0.421875 0.708434
vt 0.578125 0.708434
vt 0.656250 0.843750
vt 0.375000 0.312500
vt 0.416667 0.312500
vt 0.416667 0.688440
vt 0.375000 0.688440
vt 0.458333 0.312500
vt 0.458333 0.688440
vt 0.500000 0.312500
vt 0.500000 0.688440
vt 0.541667 0.312500
vt 0.541667 0.688440
vt 0.583333 0.312500
vt 0.583333 0.688440
vt 0.625000 0.312500
vt 0.625000 0.688440
vt 0.421875 0.020934
vt 0.578125 0.020934
vt 0.500000 0.150000
vt 0.343750 0.156250
vt 0.421875 0.291566
vt 0.578125 0.291566
vt 0.656250 0.156250
vt 0.578125 0.979066
vt 0.421875 0.979066
vt 0.500000 0.837500
vt 0.343750 0.843750
vt 0.421875 0.708434
vt 0.578125 0.708434
vt 0.656250 0.843750
vn 0.000000 0.000000 -1.000000
vn 0.000000 0.000000 -1.000000
vn 0.000000 0.000000 -1.000000
vn 0.000000 0.000000 -1.000000
vn -0.866025 0.000000 -0.500001
vn -0.866025 0.000000 -0.500001
vn -0.866025 0.000000 -0.500001
vn -0.866025 0.000000 -0.500001
vn -0.866026 0.000000 0.499999
vn -0.866026 0.000000 0.499999
vn -0.866026 0.000000 0.499999
vn -0.866026 0.000000 0.499999
vn 0.000000 0.000000 1.000000
vn 0.000000 0.000000 1.000000
vn 0.000000 0.000000 1.000000
vn 0.000000 0.000000 1.000000
vn 0.866026 0.000000 0.499999
vn 0.866026 0.000000 0.499999
vn 0.866026 0.000000 0.499999
vn 0.866026 0.000000 0.499999
vn 0.866025 0.000000 -0.500001
vn 0.866025 0.000000 -0.500001
vn 0.866025 0.000000 -0.500001
vn 0.866025 0.000000 -0.500001
vn 0.000000 -1.000000 0.000000
vn 0.000000 -1.000000 0.000000
vn 0.000000 -1.000000 0.000000
vn 0.000000 -1.000000 0.000000
vn 0.000000 -1.000000 0.000000
vn 0.000000 -1.000000 0.000000
vn 0.000000 -1.000000 0.000000
vn 0.475597 0.308591 -0.823759
vn -0.475597 0.308591 -0.823759
vn 0.000000 1.000000 0.000000
vn -0.951195 0.308590 -0.000000
vn -0.475601 0.308590 0.823757
vn 0.475601 0.308590 0.823757
vn 0.951195 0.308590 -0.000000
vn 0.000000 0.000000 -1.000000
vn 0.000000 0.000000 -1.000000
vn 0.000000 0.000000 -1.000000
vn 0.000000 0.000000 -1.000000
vn -0.866026 0.000000 -0.499999
vn -0.866026 0.000000 -0.499999
vn -0.866026 0.000000 -0.499999
vn -0.866026 0.000000 -0.499999
vn -0.866025 0.000000 0.500001
vn -0.866025 0.000000 0.500001
vn -0.866025 0.000000 0.500001
vn -0.866025 0.000000 0.500001
vn 0.000000 0.000000 1.000000
vn 0.000000 0.000000 1.000000
vn 0.000000 0.000000 1.000000
vn 0.000000 0.000000 1.000000
vn 0.866025 0.000000 0.500001
vn 0.866025 0.000000 0.500001
vn 0.866025 0.000000 0.500001
vn 0.866025 0.000000 0.500001
vn 0.866026 0.000000 -0.499999
vn 0.866026 0.000000 -0.499999
vn 0.866026 0.000000 -0.499999
vn 0.866026 0.000000 -0.499999
vn 0.000000 -1.000000 0.000000
vn 0.000000 -1.000000 0.000000
vn 0.000000 -1.000000 0.000000
vn 0.000000 -1.000000 0.000000
vn 0.000000 -1.000000 0.000000
vn 0.000000 -1.000000 0.000000
vn 0.000000 -1.000000 0.000000
vn 0.475601 0.308590 -0.823757
vn -0.475601 0.308590 -0.823757
vn 0.000000 1.000000 0.000000
vn -0.951195 0.308590 0.000000
vn -0.475597 0.308591 0.823759
vn 0.475597 0.308591 0.823759
vn 0.951195 0.308590 0.000000
vn 0.000000 0.000000 -1.000000
vn 0.000000 0.000000 -1.000000
vn 0.000000 0.000000 -1.000000
vn 0.000000 0.000000 -1.000000
vn -0.866025 0.000000 -0.500001
vn -0.866025 0.000000 -0.500001
vn -0.866025 0.000000 -0.500001
vn -0.866025 0.000000 -0.500001
vn -0.866025 0.000000 0.500001
vn -0.866025 0.000000 0.500001
vn -0.866025 0.000000 0.500001
vn -0.866025 0.000000 0.500001
vn 0.000000 0.000000 1.000000
vn 0.000000 0.000000 1.000000
vn 0.000000 0.000000 1.000000
vn 0.000000 0.000000 1.000000
vn 0.866025 0.000000 0.500001
vn 0.866025 0.000000 0.500001
vn 0.866025 0.000000 0.500001
vn 0.866025 0.000000 0.500001
vn 0.866025 0.000000 -0.500001
vn 0.866025 0.000000 -0.500001
vn 0.866025 0.000000 -0.500001
vn 0.866025 0.000000 -0.500001
vn 0.000000 -1.000000 0.000000
vn 0.000000 -1.000000 0.000000
vn 0.000000 -1.000000 0.000000
vn 0.000000 -1.000000 0.000000
vn 0.000000 -1.000000 0.000000
vn 0.000000 -1.000000 0.000000
vn 0.000000 -1.000000 0.000000
vn 0.475597 0.308591 -0.823759
vn -0.475597 0.308591 -0.823759
vn 0.000000 1.000000 0.000000
vn -0.951195 0.308590 -0.000000
vn -0.475601 0.308590 0.823757
vn 0.475601 0.308590 0.823757
vn 0.951195 0.308590 -0.000000
vn 0.000000 0.000000 -1.000000
vn 0.000000 0.000000 -1.000000
vn 0.000000 0.000000 -1.000000
vn 0.000000 0.000000 -1.000000
vn -0.866026 0.000000 -0.499999
vn -0.866026 0.000000 -0.499999
vn -0.866026 0.000000 -0.499999
vn -0.866026 0.000000 -0.499999
vn -0.866027 0.000000 0.499997
vn -0.866027 0.000000 0.499997
vn -0.866027 0.000000 0.499997
vn -0.866027 0.000000 0.499997
vn 0.000000 0.000000 1.000000
vn 0.000000 0.000000 1.000000
vn 0.000000 0.000000 1.000000
vn 0.000000 0.000000 1.000000
vn 0.866027 0.000000 0.499997
vn 0.866027 0.000000 0.499997
vn 0.866027 0.000000 0.499997
vn 0.866027 0.000000 0.499997
vn 0.866026 0.000000 -0.499999
vn 0.866026 0.000000 -0.499999
vn 0.866026 0.000000 -0.499999
vn 0.866026 0.000000 -0.499999
vn 0.000000 -1.000000 0.000000
vn 0.000000 -1.000000 0.000000
vn 0.000000 -1.000000 0.000000
vn 0.000000 -1.000000 0.000000
vn 0.000000 -1.000000 0.000000
vn 0.000000 -1.000000 0.000000
vn 0.000000 -1.000000 0.000000
vn 0.475597 0.308591 -0.823759
vn -0.475597 0.308591 -0.823759
vn 0.000000 1.000000 0.000000
vn -0.951195 0.308589 0.000000
vn -0.475600 0.308590 0.823757
vn 0.475601 0.308591 0.823757
vn 0.951195 0.308589 -0.000000
vn 0.000000 0.000000 -1.000000
vn 0.000000 0.000000 -1.000000
vn 0.000000 0.000000 -1.000000
vn 0.000000 0.000000 -1.000000
vn -0.866027 0.000000 -0.499997
vn -0.866027 0.000000 -0.499997
vn -0.866027 0.000000 -0.499997
vn -0.866027 0.000000 -0.499997
vn -0.866026 0.000000 0.499999
vn -0.866026 0.000000 0.499999
vn -0.866026 0.000000 0.499999
vn -0.866026 0.000000 0.499999
vn 0.000000 0.000000 1.000000
vn 0.000000 0.000000 1.000000
vn 0.000000 0.000000 1.000000
vn 0.000000 0.000000 1.000000
vn 0.866026 0.000000 0.499999
vn 0.866026 0.000000 0.499999
vn 0.866026 0.000000 0.499999
vn 0.866026 0.000000 0.499999
vn 0.866027 0.000000 -0.499997
vn 0.866027 0.000000 -0.499997
vn 0.866027 0.000000 -0.499997
vn 0.866027 0.000000 -0.499997
vn 0.000000 -1.000000 0.000000
vn 0.000000 -1.000000 0.000000
vn 0.000000 -1.000000 0.000000
vn 0.000000 -1.000000 0.000000
vn 0.000000 -1.000000 0.000000
vn 0.000000 -1.000000 0.000000
vn 0.000000 -1.000000 0.000000
vn 0.475600 0.308590 -0.823757
vn -0.475601 0.308591 -0.823757
vn -0.000000 1.000000 -0.000000
vn -0.951195 0.308589 0.000000
vn -0.475597 0.308591 0.823759
vn 0.475597 0.308591 0.823759
vn 0.951195 0.308589 -0.000000
vn 0.000000 0.000000 -1.000000
vn 0.000000 0.000000 -1.000000
vn 0.000000 0.000000 -1.000000
vn 0.000000 0.000000 -1.000000
vn -0.866026 0.000000 -0.499999
vn -0.866026 0.000000 -0.499999
vn -0.866026 0.000000 -0.499999
vn -0.866026 0.000000 -0.499999
vn -0.866026 0.000000 0.499999
vn -0.866026 0.000000 0.499999
vn -0.866026 0.000000 0.499999
vn -0.866026 0.000000 0.499999
vn 0.000000 0.000000 1.000000
vn 0.000000 0.000000 1.000000
vn 0.000000 0.000000 1.000000
vn 0.000000 0.000000 1.000000
vn 0.866026 0.000000 0.499999
vn 0.866026 0.000000 0.499999
vn 0.866026 0.000000 0.499999
vn 0.866026 0.000000 0.499999
vn 0.866026 0.000000 -0.499999
vn 0.866026 0.000000 -0.499999
vn 0.866026 0.000000 -0.499999
vn 0.866026 0.000000 -0.499999
vn 0.000000 -1.000000 0.000000
vn 0.000000 -1.000000 0.000000
vn 0.000000 -1.000000 0.000000
vn 0.000000 -1.000000 0.000000
vn 0.000000 -1.000000 0.000000
vn 0.000000 -1.000000 0.000000
vn 0.000000 -1.000000 0.000000
vn 0.475597 0.308591 -0.823759
vn -0.475597 0.308591 -0.823759
vn 0.000000 1.000000 0.000000
vn -0.951195 0.308589 0.000000
vn -0.475600 0.308590 0.823757
vn 0.475601 0.308591 0.823757
vn 0.951195 0.308589 -0.000000
s off
g group17_pasted__pCylinder8
usemtl initialShadingGroup
f 21/33/65 22/34/66 28/41/67 27/40/68
f 22/34/69 23/35/70 29/42/71 28/41/72
f 23/35/73 24/36/74 30/43/75 29/42/76
f 24/36/77 25/37/78 31/44/79 30/43/80
f 25/37/81 26/38/82 32/45/83 31/44/84
f 26/38/85 21/39/86 27/46/87 32/45/88
s 1
f 22/28/89 21/27/90 33/53/91
f 23/29/92 22/28/89 33/53/91
f 24/30/93 23/29/92 33/53/91
f 25/31/94 24/30/93 33/53/91
f 26/32/95 25/31/94 33/53/91
f 21/27/90 26/32/95 33/53/91
s 2
f 27/51/96 28/50/97 34/54/98
f 28/50/97 29/49/99 34/54/98
f 29/49/99 30/48/100 34/54/98
f 30/48/100 31/47/101 34/54/98
f 31/47/101 32/52/102 34/54/98
f 32/52/102 27/51/96 34/54/98
s off
f 35/55/103 36/56/104 42/57/105 41/58/106
f 36/56/107 37/59/108 43/60/109 42/57/110
f 37/59/111 38/61/112 44/62/113 43/60/114
f 38/61/115 39/63/116 45/64/117 44/62/118
f 39/63/119 40/65/120 46/66/121 45/64/122
f 40/65/123 35/67/124 41/68/125 46/66/126
s 3
f 36/69/127 35/70/128 47/71/129
f 37/72/130 36/69/127 47/71/129
f 38/73/131 37/72/130 47/71/129
f 39/74/132 38/73/131 47/71/129
f 40/75/133 39/74/132 47/71/129
f 35/70/128 40/75/133 47/71/129
s 4
f 41/76/134 42/77/135 48/78/136
f 42/77/135 43/79/137 48/78/136
f 43/79/137 44/80/138 48/78/136
f 44/80/138 45/81/139 48/78/136
f 45/81/139 46/82/140 48/78/136
f 46/82/140 41/76/134 48/78/136
s off
f 49/83/141 50/84/142 56/85/143 55/86/144
f 50/84/145 51/87/146 57/88/147 56/85/148
f 51/87/149 52/89/150 58/90/151 57/88/152
f 52/89/153 53/91/154 59/92/155 58/90/156
f 53/91/157 54/93/158 60/94/159 59/92/160
f 54/93/161 49/95/162 55/96/163 60/94/164
s 5
f 50/97/165 49/98/166 61/99/167
f 51/100/168 50/97/165 61/99/167
f 52/101/169 51/100/168 61/99/167
f 53/102/170 52/101/169 61/99/167
f 54/103/171 53/102/170 61/99/167
f 49/98/166 54/103/171 61/99/167
s 6
f 55/104/172 56/105/173 62/106/174
f 56/105/173 57/107/175 62/106/174
f 57/107/175 58/108/176 62/106/174
f 58/108/176 59/109/177 62/106/174
f 59/109/177 60/110/178 62/106/174
f 60/110/178 55/104/172 62/106/174
s off
f 63/111/179 64/112/180 70/113/181 69/114/182
f 64/112/183 65/115/184 71/116/185 70/113/186
f 65/115/187 66/117/188 72/118/189 71/116/190
f 66/117/191 67/119/192 73/120/193 72/118/194
f 67/119/195 68/121/196 74/122/197 73/120/198
f 68/121/199 63/123/200 69/124/201 74/122/202
s 7
f 64/125/203 63/126/204 75/127/205
f 65/128/206 64/125/203 75/127/205
f 66/129/207 65/128/206 75/127/205
f 67/130/208 66/129/207 75/127/205
f 68/131/209 67/130/208 75/127/205
f 63/126/204 68/131/209 75/127/205
s 8
f 69/132/210 70/133/211 76/134/212
f 70/133/211 71/135/213 76/134/212
f 71/135/213 72/136/214 76/134/212
f 72/136/214 73/137/215 76/134/212
f 73/137/215 74/138/216 76/134/212
f 74/138/216 69/132/210 76/134/212
s off
f 77/139/217 78/140/218 84/141/219 83/142/220
f 78/140/221 79/143/222 85/144/223 84/141/224
f 79/143/225 80/145/226 86/146/227 85/144/228
f 80/145/229 81/147/230 87/148/231 86/146/232
f 81/147/233 82/149/234 88/150/235 87/148/236
f 82/149/237 77/151/238 83/152/239 88/150/240
s 9
f 78/153/241 77/154/242 89/155/243
f 79/156/244 78/153/241 89/155/243
f 80/157/245 79/156/244 89/155/243
f 81/158/246 80/157/245 89/155/243
f 82/159/247 81/158/246 89/155/243
f 77/154/242 82/159/247 89/155/243
s 10
f 83/160/248 84/161/249 90/162/250
f 84/161/249 85/163/251 90/162/250
f 85/163/251 86/164/252 90/162/250
f 86/164/252 87/165/253 90/162/250
f 87/165/253 88/166/254 90/162/250
f 88/166/254 83/160/248 90/162/250
s off
f 91/167/255 92/168/256 98/169/257 97/170/258
f 92/168/259 93/171/260 99/172/261 98/169/262
f 93/171/263 94/173/264 100/174/265 99/172/266
f 94/173/267 95/175/268 101/176/269 100/174/270
f 95/175/271 96/177/272 102/178/273 101/176/274
f 96/177/275 91/179/276 97/180/277 102/178/278
s 11
f 92/181/279 91/182/280 103/183/281
f 93/184/282 92/181/279 103/183/281
f 94/185/283 93/184/282 103/183/281
f 95/186/284 94/185/283 103/183/281
f 96/187/285 95/186/284 103/183/281
f 91/182/280 96/187/285 103/183/281
s 12
f 97/188/286 98/189/287 104/190/288
f 98/189/287 99/191/289 104/190/288
f 99/191/289 100/192/290 104/190/288
f 100/192/290 101/193/291 104/190/288
f 101/193/291 102/194/292 104/190/288
f 102/194/292 97/188/286 104/190/288
