# This file uses centimeters as units for non-parametric coordinates.

mtllib tree1.mtl
g default
v -1.973732 3.779795 0.669649
v -0.273762 3.374424 0.701602
v 0.273762 3.374424 0.701602
v 1.973732 3.779795 0.669649
v -4.021645 5.489454 1.256149
v -0.288182 4.989110 1.273836
v 0.288183 4.989110 1.273836
v 4.021645 5.489454 1.256149
v -4.545767 7.604482 1.718531
v -0.288182 7.289767 1.727372
v 0.288183 7.289767 1.727372
v 4.545767 7.604482 1.718532
v -4.489102 9.719513 1.737890
v -0.288182 9.590426 1.753995
v 0.288183 9.590426 1.753995
v 4.489102 9.719513 1.737889
v -3.958061 11.834541 1.447440
v -0.288182 11.891084 1.470970
v 0.288183 11.891083 1.470970
v 3.958061 11.834541 1.447440
v -3.112934 13.949571 1.066961
v -0.288182 14.191742 1.137131
v 0.288183 14.191742 1.137131
v 3.112934 13.949571 1.066961
v -1.894253 16.064598 0.775723
v 0.000000 19.006187 0.317544
v 1.894253 16.064600 0.775723
v -2.060505 16.492399 0.000000
v 0.000000 19.692160 0.000000
v 2.060505 16.492399 0.000000
v -1.894253 16.064600 -0.775723
v 0.000000 19.006187 -0.317544
v 1.894253 16.064600 -0.775723
v -3.112934 13.949570 -1.066961
v -0.288182 14.191740 -1.137132
v 0.288183 14.191740 -1.137131
v 3.112934 13.949570 -1.066961
v -3.958061 11.834540 -1.447440
v -0.288182 11.891083 -1.470970
v 0.288183 11.891083 -1.470970
v 3.958061 11.834540 -1.447440
v -4.489102 9.719513 -1.737889
v -0.288182 9.590426 -1.753995
v 0.288183 9.590426 -1.753995
v 4.489102 9.719513 -1.737889
v -4.545767 7.604481 -1.718531
v -0.288182 7.289766 -1.727374
v 0.288183 7.289766 -1.727374
v 4.545767 7.604481 -1.718531
v -4.021645 5.489453 -1.256149
v -0.288182 4.989109 -1.273836
v 0.288183 4.989109 -1.273836
v 4.021645 5.489453 -1.256149
v -1.973732 3.779795 -0.669649
v -0.273762 3.374424 -0.701604
v 0.273762 3.374424 -0.701604
v 1.973732 3.779795 -0.669649
v -2.146960 3.129401 0.000000
v -0.297789 2.688451 0.000000
v 0.297789 2.688451 0.000000
v 2.146960 3.129401 0.000000
v 4.374611 4.989110 0.000000
v 4.944733 7.289767 0.000000
v 4.883095 9.590426 0.000000
v 4.305447 11.891084 0.000000
v 3.386145 14.191742 0.000000
v -4.374611 4.989110 0.000000
v -4.944733 7.289767 0.000000
v -4.883095 9.590426 0.000000
v -4.305447 11.891084 0.000000
v -3.386145 14.191742 0.000000
v 0.288183 3.129401 0.786621
v -0.288182 3.129401 0.786620
v -0.288182 3.129401 -0.786621
v 0.288183 3.129401 -0.786621
v -0.167644 16.492401 -0.718063
v 0.167645 16.492401 -0.718063
v -0.167644 16.492401 0.718063
v 0.167645 16.492395 0.718063
v -0.393849 -0.000001 -0.500000
v 0.393850 -0.000001 -0.500000
v 0.393850 -0.000001 0.000000
v -0.393849 -0.000001 0.000000
v 0.393850 -0.000001 0.500000
v -0.393849 -0.000001 0.500000
vt 0.397642 0.163016
vt 0.482458 0.127104
vt 0.485107 0.152721
vt 0.517542 0.127106
vt 0.514893 0.152719
vt 0.602358 0.163016
vt 0.294315 0.252881
vt 0.486254 0.251216
vt 0.486268 0.366687
vt 0.264198 0.364595
vt 0.513746 0.251216
vt 0.513732 0.366687
vt 0.705685 0.252881
vt 0.735802 0.364595
vt 0.486080 0.482736
vt 0.264664 0.480370
vt 0.513920 0.482736
vt 0.735336 0.480370
vt 0.485946 0.599766
vt 0.290308 0.598091
vt 0.514054 0.599766
vt 0.709692 0.598091
vt 0.485836 0.717559
vt 0.333840 0.717113
vt 0.514164 0.717559
vt 0.666160 0.717114
vt 0.397861 0.838355
vt 0.491693 0.834115
vt 0.500002 0.978449
vt 0.508307 0.834121
vt 0.602139 0.838354
vt 0.499998 0.993111
vt 0.376549 0.853313
vt 0.623451 0.853316
vt 0.623458 0.853315
vt 0.499995 0.993107
vt 0.500005 0.978454
vt 0.602145 0.838349
vt 0.376543 0.853311
vt 0.397854 0.838349
vt 0.508305 0.834125
vt 0.514170 0.717554
vt 0.666162 0.717106
vt 0.491694 0.834107
vt 0.485830 0.717555
vt 0.333838 0.717105
vt 0.514060 0.599748
vt 0.709712 0.598067
vt 0.485940 0.599748
vt 0.290288 0.598067
vt 0.513912 0.482717
vt 0.735297 0.480352
vt 0.486088 0.482717
vt 0.264703 0.480352
vt 0.513730 0.366675
vt 0.735813 0.364593
vt 0.486270 0.366675
vt 0.264187 0.364593
vt 0.513740 0.251210
vt 0.705740 0.252838
vt 0.486260 0.251210
vt 0.294260 0.252838
vt 0.602263 0.162995
vt 0.514881 0.152748
vt 0.517530 0.127153
vt 0.485119 0.152748
vt 0.482470 0.127153
vt 0.397737 0.162995
vt 0.536879 0.115918
vt 0.614268 0.143397
vt 0.513050 0.017974
vt 0.486950 0.017974
vt 0.472164 0.011004
vt 0.527836 0.011004
vt 0.385732 0.143396
vt 0.463121 0.115918
vt 0.385620 0.143426
vt 0.463103 0.115861
vt 0.472159 0.010914
vt 0.527841 0.010914
vt 0.513056 0.017887
vt 0.486944 0.017887
vt 0.536897 0.115861
vt 0.614380 0.143426
vt 0.275307 0.239163
vt 0.724622 0.239218
vt 0.239982 0.360759
vt 0.760010 0.360749
vt 0.240304 0.483258
vt 0.759745 0.483278
vt 0.266548 0.605662
vt 0.733420 0.605689
vt 0.311395 0.728258
vt 0.688610 0.728267
vt 0.724693 0.239164
vt 0.275378 0.239218
vt 0.760018 0.360759
vt 0.239990 0.360749
vt 0.759696 0.483258
vt 0.240255 0.483278
vt 0.733452 0.605662
vt 0.266580 0.605689
vt 0.688605 0.728259
vt 0.311390 0.728267
vn 0.000000 0.000000 1.000000
vn 0.000000 0.000000 1.000000
vn 0.000000 0.000000 1.000000
vn 0.000000 0.000000 1.000000
vn 0.000000 0.000000 1.000000
vn 0.000000 0.000000 1.000000
vn 0.000000 0.000000 1.000000
vn 0.000000 0.000000 1.000000
vn 0.000000 0.000000 1.000000
vn 0.000000 0.000000 1.000000
vn 0.000000 0.000000 1.000000
vn 0.000000 0.000000 1.000000
vn 0.000000 0.000000 1.000000
vn 0.000000 0.000000 1.000000
vn 0.000000 0.000000 1.000000
vn 0.000000 0.000000 1.000000
vn 0.000000 0.000000 1.000000
vn 0.000000 0.000000 1.000000
vn 0.000000 0.000000 1.000000
vn 0.000000 0.000000 1.000000
vn 0.000000 0.000000 1.000000
vn 0.000000 0.000000 1.000000
vn 0.000000 0.000000 1.000000
vn 0.000000 0.000000 1.000000
vn 0.000000 0.000000 1.000000
vn 0.000000 0.000000 1.000000
vn 0.000000 0.000000 1.000000
vn 0.000000 0.000000 1.000000
vn 0.000000 0.000000 1.000000
vn 0.000000 0.000000 1.000000
vn 0.000000 0.000000 1.000000
vn 0.000000 0.000000 1.000000
vn 0.000000 0.000000 1.000000
vn 0.000000 0.000000 1.000000
vn 0.000000 0.000000 1.000000
vn 0.000000 0.000000 1.000000
vn 0.000000 0.000000 1.000000
vn 0.000000 0.000000 1.000000
vn 0.000000 0.000000 1.000000
vn 0.000000 0.000000 1.000000
vn 0.000000 0.000000 1.000000
vn 0.000000 0.000000 1.000000
vn 0.000000 0.000000 1.000000
vn 0.000000 0.000000 1.000000
vn 0.000000 0.000000 1.000000
vn 0.000000 0.000000 1.000000
vn 0.000000 0.000000 1.000000
vn 0.000000 0.000000 1.000000
vn 0.000000 0.000000 1.000000
vn 0.000000 0.000000 1.000000
vn 0.000000 0.000000 1.000000
vn 0.000000 0.000000 1.000000
vn 0.000000 0.000000 1.000000
vn 0.000000 0.000000 1.000000
vn 0.000000 0.000000 1.000000
vn 0.000000 0.000000 1.000000
vn 0.000000 0.000000 1.000000
vn 0.000000 0.000000 1.000000
vn 0.000000 0.000000 1.000000
vn 0.000000 0.000000 1.000000
vn 0.000000 0.000000 1.000000
vn 0.000000 0.000000 1.000000
vn 0.000000 0.000000 1.000000
vn 0.000000 0.000000 1.000000
vn 0.000000 0.000000 1.000000
vn 0.000000 0.000000 1.000000
vn 0.000000 0.000000 1.000000
vn -0.840758 0.541411 0.000002
vn 0.000000 1.000000 0.000001
vn 0.000000 1.000000 0.000001
vn -0.840758 0.541411 0.000001
vn 0.000000 1.000000 0.000001
vn 0.840758 0.541411 0.000000
vn 0.840758 0.541411 0.000000
vn 0.000000 1.000000 0.000001
vn -0.840758 0.541411 0.000001
vn 0.000000 1.000000 0.000001
vn 0.000000 1.000000 0.000000
vn -0.840758 0.541411 0.000000
vn 0.000000 1.000000 0.000001
vn 0.840758 0.541411 0.000000
vn 0.840758 0.541411 0.000000
vn 0.000000 1.000000 0.000000
vn 0.000000 0.000000 -1.000000
vn 0.000000 0.000000 -1.000000
vn 0.000000 0.000000 -1.000000
vn 0.000000 0.000000 -1.000000
vn 0.000000 0.000000 -1.000000
vn 0.000000 0.000000 -1.000000
vn 0.000000 0.000000 -1.000000
vn 0.000000 0.000000 -1.000000
vn 0.000000 0.000000 -1.000000
vn 0.000000 0.000000 -1.000000
vn 0.000000 0.000000 -1.000000
vn 0.000000 0.000000 -1.000000
vn 0.000000 0.000000 -1.000000
vn 0.000000 0.000000 -1.000000
vn 0.000000 0.000000 -1.000000
vn 0.000000 0.000000 -1.000000
vn 0.000000 0.000000 -1.000000
vn 0.000000 0.000000 -1.000000
vn 0.000000 0.000000 -1.000000
vn 0.000000 0.000000 -1.000000
vn 0.000000 0.000000 -1.000000
vn 0.000000 0.000000 -1.000000
vn 0.000000 0.000000 -1.000000
vn 0.000000 0.000000 -1.000000
vn 0.000000 0.000000 -1.000000
vn 0.000000 0.000000 -1.000000
vn 0.000000 0.000000 -1.000000
vn 0.000000 0.000000 -1.000000
vn 0.000000 0.000000 -1.000000
vn 0.000000 0.000000 -1.000000
vn 0.000000 0.000000 -1.000000
vn 0.000000 0.000000 -1.000000
vn 0.000000 0.000000 -1.000000
vn 0.000000 0.000000 -1.000000
vn 0.000000 0.000000 -1.000000
vn 0.000000 0.000000 -1.000000
vn 0.000000 0.000000 -1.000000
vn 0.000000 0.000000 -1.000000
vn 0.000000 0.000000 -1.000000
vn 0.000000 0.000000 -1.000000
vn 0.000000 0.000000 -1.000000
vn 0.000000 0.000000 -1.000000
vn 0.000000 0.000000 -1.000000
vn 0.000000 0.000000 -1.000000
vn 0.000000 0.000000 -1.000000
vn 0.000000 0.000000 -1.000000
vn 0.000000 0.000000 -1.000000
vn 0.000000 0.000000 -1.000000
vn 0.000000 0.000000 -1.000000
vn 0.000000 0.000000 -1.000000
vn 0.000000 0.000000 -1.000000
vn 0.000000 0.000000 -1.000000
vn 0.000000 0.000000 -1.000000
vn 0.000000 0.000000 -1.000000
vn 0.000000 0.000000 -1.000000
vn 0.000000 0.000000 -1.000000
vn 0.000000 0.000000 -1.000000
vn 0.000000 0.000000 -1.000000
vn 0.000000 0.000000 -1.000000
vn 0.000000 0.000000 -1.000000
vn 0.000000 0.000000 -1.000000
vn 0.000000 0.000000 -1.000000
vn 0.000000 0.000000 -1.000000
vn 0.000000 0.000000 -1.000000
vn 0.000000 0.000000 -1.000000
vn 0.000000 0.000000 -1.000000
vn 0.000000 0.000000 -1.000000
vn 0.000000 0.000000 -1.000000
vn 0.000000 0.000000 -1.000000
vn 0.000000 0.000000 -1.000000
vn -0.231955 -0.972727 0.000000
vn -0.231955 -0.972727 0.000000
vn -0.231955 -0.972727 0.000000
vn -0.231955 -0.972727 0.000000
vn 0.000000 -1.000000 0.000000
vn 0.000000 -1.000000 0.000000
vn 0.000000 -1.000000 0.000000
vn 0.000000 -1.000000 0.000000
vn 0.231955 -0.972727 0.000000
vn 0.231955 -0.972727 0.000000
vn 0.231955 -0.972727 0.000000
vn 0.231955 -0.972727 0.000000
vn -0.231955 -0.972727 0.000000
vn -0.231955 -0.972727 0.000000
vn -0.231955 -0.972727 0.000000
vn -0.231955 -0.972727 0.000000
vn 0.000000 -1.000000 0.000000
vn 0.000000 -1.000000 0.000000
vn 0.000000 -1.000000 0.000000
vn 0.000000 -1.000000 0.000000
vn 0.231955 -0.972727 0.000000
vn 0.231955 -0.972727 0.000000
vn 0.231955 -0.972727 0.000000
vn 0.231955 -0.972727 0.000000
vn 0.640862 -0.767656 0.000001
vn 0.640862 -0.767656 0.000001
vn 0.829816 -0.558037 0.000001
vn 0.829816 -0.558037 0.000001
vn 0.640862 -0.767656 0.000000
vn 0.640862 -0.767656 0.000001
vn 0.829816 -0.558037 0.000001
vn 0.829816 -0.558037 0.000000
vn 0.829816 -0.558037 0.000001
vn 0.829816 -0.558037 0.000001
vn 0.993949 -0.109840 0.000000
vn 0.993949 -0.109840 0.000000
vn 0.829816 -0.558037 0.000000
vn 0.829816 -0.558037 0.000001
vn 0.993949 -0.109840 0.000000
vn 0.993949 -0.109840 0.000000
vn 0.993949 -0.109840 0.000000
vn 0.993949 -0.109840 0.000000
vn 0.990486 0.137614 0.000000
vn 0.990486 0.137614 0.000000
vn 0.993949 -0.109840 0.000000
vn 0.993949 -0.109840 0.000000
vn 0.990486 0.137614 0.000000
vn 0.990486 0.137614 0.000000
vn 0.990486 0.137614 0.000000
vn 0.990486 0.137614 0.000000
vn 0.950941 0.309371 -0.000001
vn 0.950942 0.309371 0.000000
vn 0.990486 0.137614 0.000000
vn 0.990486 0.137614 0.000000
vn 0.950942 0.309371 0.000000
vn 0.950942 0.309371 0.000000
vn 0.950942 0.309371 0.000000
vn 0.950941 0.309371 -0.000001
vn 0.898738 0.438486 -0.000001
vn 0.898738 0.438486 0.000000
vn 0.950942 0.309371 0.000000
vn 0.950942 0.309371 0.000000
vn 0.898738 0.438486 0.000000
vn 0.898738 0.438486 0.000000
vn 0.898738 0.438486 0.000000
vn 0.898738 0.438486 -0.000001
vn 0.866457 0.499252 -0.000001
vn 0.866456 0.499253 0.000000
vn 0.898738 0.438486 0.000000
vn 0.898738 0.438486 0.000000
vn 0.866456 0.499253 0.000000
vn 0.866456 0.499253 0.000000
vn -0.640862 -0.767656 0.000001
vn -0.640862 -0.767656 0.000001
vn -0.829816 -0.558037 0.000001
vn -0.829816 -0.558037 0.000001
vn -0.640862 -0.767656 0.000001
vn -0.640862 -0.767656 0.000000
vn -0.829816 -0.558037 0.000000
vn -0.829816 -0.558037 0.000001
vn -0.829816 -0.558037 0.000001
vn -0.829816 -0.558037 0.000001
vn -0.993949 -0.109840 0.000000
vn -0.993949 -0.109840 0.000000
vn -0.829816 -0.558037 0.000001
vn -0.829816 -0.558037 0.000000
vn -0.993949 -0.109840 0.000000
vn -0.993949 -0.109840 0.000000
vn -0.993949 -0.109840 0.000000
vn -0.993949 -0.109840 0.000000
vn -0.990486 0.137614 -0.000000
vn -0.990486 0.137614 -0.000000
vn -0.993949 -0.109840 0.000000
vn -0.993949 -0.109840 0.000000
vn -0.990486 0.137614 0.000000
vn -0.990486 0.137614 -0.000000
vn -0.990486 0.137614 -0.000000
vn -0.990486 0.137614 -0.000000
vn -0.950942 0.309371 -0.000000
vn -0.950941 0.309371 -0.000001
vn -0.990486 0.137614 -0.000000
vn -0.990486 0.137614 0.000000
vn -0.950942 0.309371 -0.000000
vn -0.950942 0.309371 -0.000000
vn -0.950941 0.309371 -0.000001
vn -0.950942 0.309371 -0.000000
vn -0.898738 0.438486 -0.000000
vn -0.898738 0.438486 -0.000001
vn -0.950942 0.309371 -0.000000
vn -0.950942 0.309371 -0.000000
vn -0.898738 0.438486 0.000000
vn -0.898738 0.438486 -0.000000
vn -0.898738 0.438486 -0.000001
vn -0.898738 0.438486 -0.000000
vn -0.866456 0.499253 -0.000000
vn -0.866457 0.499252 -0.000001
vn -0.898738 0.438486 -0.000000
vn -0.898738 0.438486 0.000000
vn -0.866456 0.499253 0.000001
vn -0.866456 0.499253 -0.000000
vn 0.000000 0.000000 1.000000
vn 0.000000 0.000000 1.000000
vn 0.000000 0.000000 1.000000
vn 0.000000 0.000000 1.000000
vn 0.000000 0.000000 1.000000
vn 0.000000 0.000000 1.000000
vn 0.000000 0.000000 1.000000
vn 0.000000 0.000000 1.000000
vn 0.000000 0.000000 1.000000
vn 0.000000 0.000000 1.000000
vn 0.000000 0.000000 1.000000
vn 0.000000 0.000000 1.000000
vn 0.000000 0.000000 -1.000000
vn 0.000000 0.000000 -1.000000
vn 0.000000 0.000000 -1.000000
vn 0.000000 0.000000 -1.000000
vn 0.000000 0.000000 -1.000000
vn 0.000000 0.000000 -1.000000
vn 0.000000 0.000000 -1.000000
vn 0.000000 0.000000 -1.000000
vn 0.000000 0.000000 -1.000000
vn 0.000000 0.000000 -1.000000
vn 0.000000 0.000000 -1.000000
vn 0.000000 0.000000 -1.000000
vn 0.000000 0.000000 -1.000000
vn 0.000000 0.000000 -1.000000
vn 0.000000 0.000000 -1.000000
vn 0.000000 0.000000 -1.000000
vn 0.000000 0.000000 -1.000000
vn 0.000000 0.000000 -1.000000
vn 0.000000 0.000000 -1.000000
vn 0.000000 0.000000 -1.000000
vn 0.000000 0.000000 -1.000000
vn 0.000000 0.000000 1.000000
vn 0.000000 0.000000 1.000000
vn 0.000000 0.000000 1.000000
vn 0.000000 0.000000 1.000000
vn 0.000000 0.000000 1.000000
vn 0.000000 0.000000 1.000000
vn 0.000000 0.000000 1.000000
vn 0.000000 0.000000 1.000000
vn 0.000000 0.000000 1.000000
vn 0.000000 0.000000 1.000000
vn 0.000000 0.000000 1.000000
vn 0.000000 0.000000 1.000000
vn 0.000000 0.000000 -1.000000
vn 0.000000 0.000000 -1.000000
vn 0.000000 0.000000 -1.000000
vn 0.000000 0.000000 -1.000000
vn 0.999362 0.035708 0.000000
vn 0.999362 0.035708 0.000000
vn 0.999362 0.035708 0.000000
vn 0.999362 0.035708 0.000000
vn -0.999362 0.035708 0.000000
vn -0.999362 0.035708 0.000000
vn -0.999362 0.035708 0.000000
vn -0.999362 0.035708 0.000000
vn 0.999362 0.035708 0.000000
vn 0.999362 0.035708 0.000000
vn 0.999362 0.035708 0.000000
vn 0.999362 0.035708 0.000000
vn 0.000000 0.000000 1.000000
vn 0.000000 0.000000 1.000000
vn 0.000000 0.000000 1.000000
vn 0.000000 0.000000 1.000000
vn -0.999362 0.035708 0.000000
vn -0.999362 0.035708 0.000000
vn -0.999362 0.035708 0.000000
vn -0.999362 0.035708 0.000000
s off
g Tree1:pCube1
usemtl initialShadingGroup
f 1/1/1 2/2/2 73/3/3
f 2/2/4 3/4/5 72/5/6 73/3/7
f 3/4/8 4/6/9 72/5/10
f 5/7/11 6/8/12 10/9/13 9/10/14
f 6/8/15 7/11/16 11/12/17 10/9/18
f 7/11/19 8/13/20 12/14/21 11/12/22
f 9/10/23 10/9/24 14/15/25 13/16/26
f 10/9/27 11/12/28 15/17/29 14/15/30
f 11/12/31 12/14/32 16/18/33 15/17/34
f 13/16/35 14/15/36 18/19/37 17/20/38
f 14/15/39 15/17/40 19/21/41 18/19/42
f 15/17/43 16/18/44 20/22/45 19/21/46
f 17/20/47 18/19/48 22/23/49 21/24/50
f 18/19/51 19/21/52 23/25/53 22/23/54
f 19/21/55 20/22/56 24/26/57 23/25/58
f 25/27/59 78/28/60 26/29/61
f 78/28/62 79/30/63 26/29/64
f 79/30/65 27/31/66 26/29/67
f 25/27/68 26/29/69 29/32/70 28/33/71
f 26/29/72 27/31/73 30/34/74 29/32/75
f 28/35/76 29/36/77 32/37/78 31/38/79
f 29/36/80 30/39/81 33/40/82 32/37/83
f 31/38/84 76/41/85 35/42/86 34/43/87
f 76/41/88 77/44/89 36/45/90 35/42/91
f 77/44/92 33/40/93 37/46/94 36/45/95
f 34/43/96 35/42/97 39/47/98 38/48/99
f 35/42/100 36/45/101 40/49/102 39/47/103
f 36/45/104 37/46/105 41/50/106 40/49/107
f 38/48/108 39/47/109 43/51/110 42/52/111
f 39/47/112 40/49/113 44/53/114 43/51/115
f 40/49/116 41/50/117 45/54/118 44/53/119
f 42/52/120 43/51/121 47/55/122 46/56/123
f 43/51/124 44/53/125 48/57/126 47/55/127
f 44/53/128 45/54/129 49/58/130 48/57/131
f 46/56/132 47/55/133 51/59/134 50/60/135
f 47/55/136 48/57/137 52/61/138 51/59/139
f 48/57/140 49/58/141 53/62/142 52/61/143
f 54/63/144 74/64/145 55/65/146
f 74/64/147 75/66/148 56/67/149 55/65/150
f 75/66/151 57/68/152 56/67/153
f 54/63/154 55/65/155 59/69/156 58/70/157
f 80/71/158 81/72/159 82/73/160 83/74/161
f 56/67/162 57/68/163 61/75/164 60/76/165
f 58/77/166 59/78/167 2/2/168 1/1/169
f 83/79/170 82/80/171 84/81/172 85/82/173
f 60/83/174 61/84/175 4/6/176 3/4/177
f 61/75/178 57/68/179 53/62/180 62/85/181
f 4/6/182 61/84/183 62/86/184 8/13/185
f 62/85/186 53/62/187 49/58/188 63/87/189
f 8/13/190 62/86/191 63/88/192 12/14/193
f 63/87/194 49/58/195 45/54/196 64/89/197
f 12/14/198 63/88/199 64/90/200 16/18/201
f 64/89/202 45/54/203 41/50/204 65/91/205
f 16/18/206 64/90/207 65/92/208 20/22/209
f 65/91/210 41/50/211 37/46/212 66/93/213
f 20/22/214 65/92/215 66/94/216 24/26/217
f 66/93/218 37/46/219 33/40/220 30/39/221
f 24/26/222 66/94/223 30/34/224 27/31/225
f 54/63/226 58/70/227 67/95/228 50/60/229
f 58/77/230 1/1/231 5/7/232 67/96/233
f 50/60/234 67/95/235 68/97/236 46/56/237
f 67/96/238 5/7/239 9/10/240 68/98/241
f 46/56/242 68/97/243 69/99/244 42/52/245
f 68/98/246 9/10/247 13/16/248 69/100/249
f 42/52/250 69/99/251 70/101/252 38/48/253
f 69/100/254 13/16/255 17/20/256 70/102/257
f 38/48/258 70/101/259 71/103/260 34/43/261
f 70/102/262 17/20/263 21/24/264 71/104/265
f 34/43/266 71/103/267 28/35/268 31/38/269
f 71/104/270 21/24/271 25/27/272 28/33/273
f 72/5/274 4/6/275 8/13/276 7/11/277
f 73/3/278 72/5/279 7/11/280 6/8/281
f 1/1/282 73/3/283 6/8/284 5/7/285
f 50/60/286 51/59/287 74/64/288 54/63/289
f 51/59/290 52/61/291 75/66/292 74/64/293
f 52/61/294 53/62/295 57/68/296 75/66/297
f 31/38/298 32/37/299 76/41/300
f 32/37/301 77/44/302 76/41/303
f 32/37/304 33/40/305 77/44/306
f 21/24/307 22/23/308 78/28/309 25/27/310
f 22/23/311 23/25/312 79/30/313 78/28/314
f 23/25/315 24/26/316 27/31/317 79/30/318
f 55/65/319 56/67/320 81/72/321 80/71/322
f 56/67/323 60/76/324 82/73/325 81/72/326
f 59/69/327 55/65/328 80/71/329 83/74/330
f 60/83/331 3/4/332 84/81/333 82/80/334
f 3/4/335 2/2/336 85/82/337 84/81/338
f 2/2/339 59/78/340 83/79/341 85/82/342
